<svg id="svg" version="1.1" xmlns="http://www.w3.org/2000/svg" xmlns:xlink="http://www.w3.org/1999/xlink" width="400" height="400" viewBox="0, 0, 400,400"><g id="svgg"><path id="path0" d="M190.600 45.081 C 178.972 45.873,168.558 47.679,157.567 50.809 C 149.115 53.216,146.259 54.215,137.822 57.712 C 131.600 60.291,111.969 71.383,110.400 73.206 C 110.290 73.334,109.570 73.877,108.800 74.414 C 108.030 74.950,107.040 75.688,106.600 76.054 C 106.160 76.421,103.910 78.205,101.600 80.020 C 94.346 85.720,84.679 95.644,77.806 104.446 C 76.709 105.851,75.711 107.090,75.587 107.200 C 75.463 107.310,74.929 108.030,74.400 108.800 C 73.871 109.570,73.340 110.290,73.219 110.400 C 69.439 113.838,58.103 135.872,53.669 148.400 C 39.174 189.360,43.057 238.274,63.648 274.100 C 64.502 275.585,65.947 278.105,66.860 279.700 C 76.005 295.679,91.040 312.338,107.203 324.400 C 107.940 324.950,109.006 325.776,109.571 326.235 C 120.787 335.334,142.607 345.366,162.620 350.625 C 207.508 362.420,261.502 350.697,296.600 321.535 C 297.040 321.170,298.660 319.852,300.200 318.607 C 305.386 314.416,315.813 303.776,320.199 298.200 C 321.065 297.100,321.872 296.110,321.994 296.000 C 323.856 294.313,332.058 282.108,335.400 276.050 C 363.936 224.322,361.372 161.470,328.756 113.200 C 319.616 99.672,306.589 86.041,292.824 75.600 C 288.353 72.208,286.823 71.140,283.193 68.874 C 255.566 51.631,221.797 42.953,190.600 45.081 M233.932 70.997 C 260.938 77.682,289.828 96.809,306.134 118.800 C 307.847 121.110,309.541 123.357,309.900 123.794 C 310.259 124.230,311.708 126.480,313.120 128.794 C 314.532 131.107,315.831 133.180,316.006 133.400 C 321.635 140.475,330.469 166.454,332.395 181.600 C 332.632 183.470,333.001 186.312,333.213 187.916 C 334.116 194.729,333.434 213.563,331.999 221.400 C 331.758 222.720,331.385 224.970,331.171 226.400 C 329.346 238.581,321.285 258.556,312.919 271.625 C 304.880 284.186,293.139 297.163,282.600 305.137 C 274.517 311.252,264.005 318.008,259.560 319.943 C 257.859 320.684,252.236 323.237,250.600 324.012 C 236.615 330.631,205.413 335.235,189.400 333.041 C 161.415 329.208,137.895 306.922,133.211 279.800 C 132.945 278.260,132.564 276.245,132.364 275.323 C 131.174 269.837,132.262 256.225,134.558 247.894 C 140.810 225.201,161.353 205.954,183.986 201.584 C 186.304 201.137,189.069 200.597,190.131 200.385 C 191.192 200.173,194.342 199.998,197.131 199.996 C 206.175 199.989,216.593 198.412,223.000 196.079 C 237.396 190.838,248.219 182.362,256.789 169.616 C 258.979 166.360,262.400 159.968,262.400 159.134 C 262.400 158.946,262.739 158.028,263.153 157.096 C 264.015 155.154,264.501 153.752,265.200 151.200 C 265.471 150.210,265.831 148.950,266.000 148.400 C 269.175 138.079,267.750 119.493,262.934 108.400 C 257.536 95.964,247.852 84.504,236.631 77.272 C 234.288 75.761,231.100 74.054,227.900 72.593 C 226.189 71.812,226.010 71.119,227.289 70.223 C 228.357 69.475,227.273 69.349,233.932 70.997 M207.670 106.446 C 224.482 111.105,232.782 129.891,225.058 145.800 C 215.855 164.753,189.012 166.799,177.117 149.455 C 162.183 127.679,182.267 99.407,207.670 106.446 M194.800 239.640 C 189.629 240.998,186.716 242.332,183.300 244.908 C 156.940 264.783,182.983 305.856,212.560 291.054 C 216.996 288.834,224.800 280.920,224.800 278.642 C 224.800 278.504,225.132 277.628,225.538 276.696 C 230.726 264.778,225.484 249.773,213.722 242.867 C 208.479 239.788,199.843 238.315,194.800 239.640 " stroke="none" fill="#fbfafb" fill-rule="evenodd"></path><path id="path1" d="M192.800 43.955 C 192.030 44.092,195.619 44.203,200.776 44.202 C 205.933 44.201,209.623 44.086,208.976 43.947 C 207.461 43.622,194.635 43.628,192.800 43.955 M182.200 44.800 L 181.400 45.144 182.200 45.149 C 182.640 45.152,183.720 45.005,184.600 44.823 L 186.200 44.492 184.600 44.474 C 183.720 44.464,182.640 44.611,182.200 44.800 M213.633 44.550 C 213.725 44.632,214.880 44.809,216.200 44.943 C 217.784 45.104,218.328 45.062,217.800 44.821 C 217.044 44.476,213.279 44.231,213.633 44.550 M176.000 45.600 C 175.242 46.090,176.470 46.090,178.000 45.600 C 178.980 45.286,178.976 45.279,177.800 45.246 C 177.140 45.227,176.330 45.387,176.000 45.600 M220.433 45.347 C 220.525 45.428,221.320 45.614,222.200 45.762 C 223.346 45.954,223.630 45.914,223.200 45.621 C 222.660 45.253,220.032 44.993,220.433 45.347 M171.000 46.400 L 170.200 46.744 171.000 46.732 C 171.440 46.726,172.250 46.576,172.800 46.400 L 173.800 46.080 172.800 46.068 C 172.250 46.062,171.440 46.211,171.000 46.400 M226.800 46.400 C 227.350 46.576,228.160 46.726,228.600 46.732 L 229.400 46.744 228.600 46.400 C 228.160 46.211,227.350 46.062,226.800 46.068 L 225.800 46.080 226.800 46.400 M167.200 47.200 C 166.405 47.714,167.404 47.714,168.600 47.200 L 169.400 46.856 168.600 46.834 C 168.160 46.822,167.530 46.987,167.200 47.200 M231.200 47.200 C 232.742 47.694,233.564 47.694,232.800 47.200 C 232.470 46.987,231.750 46.827,231.200 46.846 L 230.200 46.880 231.200 47.200 M163.800 47.810 C 163.580 47.891,162.617 48.158,161.660 48.405 C 160.702 48.651,160.003 48.937,160.106 49.040 C 160.209 49.142,161.532 48.873,163.047 48.442 C 164.561 48.010,165.440 47.658,165.000 47.660 C 164.560 47.662,164.020 47.729,163.800 47.810 M235.000 48.000 C 235.440 48.189,236.160 48.344,236.600 48.344 L 237.400 48.344 236.600 48.000 C 236.160 47.811,235.440 47.656,235.000 47.656 L 234.200 47.656 235.000 48.000 M239.800 49.231 C 241.120 49.648,242.470 49.975,242.800 49.958 C 243.130 49.941,242.320 49.586,241.000 49.169 C 239.680 48.752,238.330 48.425,238.000 48.442 C 237.670 48.459,238.480 48.814,239.800 49.231 M157.400 49.600 L 156.600 49.944 157.400 49.944 C 157.840 49.944,158.560 49.789,159.000 49.600 L 159.800 49.256 159.000 49.256 C 158.560 49.256,157.840 49.411,157.400 49.600 M152.200 51.054 C 146.596 52.833,136.807 56.659,136.132 57.335 C 135.550 57.917,136.780 57.541,139.038 56.447 C 141.191 55.404,147.930 52.918,154.200 50.853 C 155.520 50.419,156.330 50.057,156.000 50.050 C 155.670 50.043,153.960 50.495,152.200 51.054 M249.000 51.934 C 263.008 56.785,277.557 63.973,287.700 71.054 C 289.405 72.244,290.797 73.079,290.793 72.909 C 290.785 72.564,284.449 68.399,279.115 65.233 C 269.225 59.363,250.891 51.357,244.800 50.249 C 244.030 50.109,245.920 50.867,249.000 51.934 M128.800 60.864 C 123.560 63.687,111.600 70.941,111.600 71.297 C 111.600 71.485,112.365 71.117,113.300 70.480 C 116.891 68.033,125.819 62.846,130.100 60.720 C 132.197 59.678,132.888 59.161,132.100 59.224 C 131.935 59.237,130.450 59.975,128.800 60.864 M230.033 70.955 C 230.125 71.039,232.090 71.594,234.400 72.186 C 236.710 72.779,240.281 73.893,242.336 74.662 C 244.391 75.431,246.172 75.961,246.294 75.840 C 246.415 75.718,246.174 75.508,245.757 75.371 C 244.673 75.017,240.745 73.581,239.800 73.194 C 237.817 72.381,229.520 70.478,230.033 70.955 M227.400 71.520 C 227.847 72.010,230.800 73.316,230.800 73.024 C 230.800 72.922,230.125 72.529,229.300 72.152 C 228.475 71.774,227.620 71.379,227.400 71.274 C 227.133 71.146,227.133 71.229,227.400 71.520 M107.800 73.860 C 106.260 75.070,104.731 76.214,104.403 76.401 C 104.075 76.587,103.896 76.829,104.005 76.939 C 104.115 77.048,105.733 75.965,107.602 74.531 C 111.534 71.515,111.446 71.591,110.967 71.629 C 110.765 71.645,109.340 72.649,107.800 73.860 M291.200 73.343 C 291.200 73.459,292.280 74.384,293.600 75.400 C 294.920 76.416,295.998 77.101,295.995 76.923 C 295.992 76.746,295.407 76.202,294.695 75.717 C 293.983 75.231,292.905 74.451,292.300 73.983 C 291.695 73.516,291.200 73.228,291.200 73.343 M234.400 74.947 C 234.400 75.028,235.120 75.570,236.000 76.153 C 236.880 76.735,237.598 77.074,237.595 76.906 C 237.592 76.738,236.965 76.195,236.201 75.700 C 234.858 74.830,234.400 74.639,234.400 74.947 M247.000 76.400 C 247.136 76.620,247.502 76.800,247.814 76.800 C 248.125 76.800,249.559 77.340,251.000 78.000 C 252.441 78.660,253.700 79.200,253.798 79.200 C 253.963 79.200,256.610 80.367,260.000 81.933 C 260.770 82.289,263.362 83.712,265.761 85.096 C 268.159 86.480,270.190 87.543,270.274 87.459 C 270.640 87.093,259.257 81.052,253.661 78.643 C 247.476 75.981,246.547 75.668,247.000 76.400 M238.220 77.521 C 238.429 77.698,239.680 78.638,241.000 79.610 C 246.210 83.447,249.837 87.002,255.320 93.644 C 256.284 94.812,256.258 94.722,255.134 93.000 C 252.555 89.049,239.844 77.200,238.184 77.200 C 237.995 77.200,238.011 77.345,238.220 77.521 M98.794 80.870 C 93.079 85.430,81.410 97.648,77.648 103.013 C 76.726 104.327,79.240 101.519,81.990 98.162 C 85.137 94.321,95.188 84.295,98.900 81.293 C 101.286 79.364,101.873 78.800,101.494 78.800 C 101.436 78.800,100.221 79.731,98.794 80.870 M298.400 78.918 C 298.400 79.009,300.335 80.713,302.700 82.706 C 305.065 84.698,307.791 87.199,308.758 88.264 C 309.726 89.329,312.432 92.180,314.774 94.600 C 317.115 97.020,320.625 101.121,322.574 103.713 C 324.522 106.304,326.316 108.544,326.558 108.689 C 326.880 108.882,326.880 108.797,326.560 108.377 C 326.317 108.060,324.889 106.180,323.386 104.200 C 316.310 94.881,298.400 76.759,298.400 78.918 M271.489 88.430 C 271.978 88.939,272.478 89.255,272.601 89.132 C 272.724 89.009,272.324 88.592,271.712 88.206 L 270.600 87.504 271.489 88.430 M273.200 89.495 C 273.200 89.884,274.814 90.919,275.051 90.682 C 275.147 90.586,274.769 90.210,274.212 89.845 C 273.656 89.480,273.200 89.322,273.200 89.495 M275.600 91.095 C 275.600 91.484,277.214 92.519,277.451 92.282 C 277.547 92.186,277.169 91.810,276.612 91.445 C 276.056 91.080,275.600 90.922,275.600 91.095 M280.000 94.305 C 280.000 94.540,280.180 94.793,280.399 94.867 C 282.343 95.516,297.154 109.401,301.662 114.800 C 303.767 117.322,308.596 123.707,309.161 124.715 C 309.369 125.088,309.634 125.300,309.748 125.185 C 310.827 124.107,292.826 104.221,285.400 98.287 C 283.200 96.529,281.085 94.818,280.700 94.484 C 280.313 94.148,280.000 94.068,280.000 94.305 M74.200 107.311 C 65.474 119.195,57.644 133.800,52.761 147.304 C 51.136 151.795,49.124 158.773,49.301 159.302 C 49.380 159.540,49.777 158.489,50.184 156.967 C 54.490 140.838,65.140 119.412,75.119 106.800 C 77.269 104.082,77.324 103.998,76.949 104.021 C 76.757 104.033,75.520 105.513,74.200 107.311 M199.400 106.241 C 210.470 106.867,221.254 113.456,224.142 121.357 C 224.294 121.774,224.530 122.004,224.665 121.868 C 225.562 120.971,218.700 112.789,215.200 110.582 C 210.126 107.382,207.027 106.406,201.400 106.237 C 198.980 106.165,198.080 106.166,199.400 106.241 M193.200 106.800 C 192.461 107.277,193.524 107.277,195.400 106.800 L 196.600 106.495 195.200 106.453 C 194.430 106.431,193.530 106.587,193.200 106.800 M188.156 108.737 C 182.863 111.490,178.411 115.659,176.060 120.064 C 174.733 122.550,175.320 122.361,176.740 119.845 C 179.350 115.220,184.708 110.553,189.748 108.512 C 192.539 107.383,192.845 107.188,191.767 107.229 C 191.345 107.245,189.720 107.923,188.156 108.737 M327.445 110.212 C 327.810 110.769,328.186 111.147,328.282 111.051 C 328.519 110.814,327.484 109.200,327.095 109.200 C 326.922 109.200,327.080 109.656,327.445 110.212 M264.428 110.676 C 264.518 111.715,265.144 112.596,265.172 111.724 C 265.187 111.242,265.020 110.736,264.800 110.600 C 264.580 110.464,264.413 110.498,264.428 110.676 M329.857 113.806 C 330.662 115.019,331.397 115.937,331.489 115.844 C 331.716 115.617,329.079 111.616,328.696 111.607 C 328.529 111.603,329.051 112.593,329.857 113.806 M265.228 113.076 C 265.318 114.115,265.944 114.996,265.972 114.124 C 265.987 113.642,265.820 113.136,265.600 113.000 C 265.380 112.864,265.213 112.898,265.228 113.076 M266.258 116.800 C 266.575 118.525,266.802 118.851,266.794 117.567 C 266.791 117.035,266.611 116.330,266.394 116.000 C 266.118 115.578,266.077 115.815,266.258 116.800 M332.807 118.400 C 333.085 118.950,334.083 120.679,335.025 122.242 C 335.967 123.805,337.768 127.093,339.028 129.550 C 340.287 132.006,341.393 133.941,341.484 133.849 C 341.705 133.628,339.400 129.085,336.791 124.600 C 335.640 122.620,334.343 120.370,333.911 119.600 C 332.976 117.936,332.082 116.963,332.807 118.400 M267.038 120.600 C 267.370 122.584,267.602 122.904,267.594 121.367 C 267.591 120.725,267.404 119.930,267.179 119.600 C 266.886 119.170,266.846 119.454,267.038 120.600 M174.629 122.843 C 172.973 127.697,172.800 128.703,172.800 133.447 C 172.800 136.151,172.957 138.776,173.149 139.281 C 173.341 139.787,173.721 140.920,173.993 141.800 C 175.432 146.444,179.049 151.721,182.713 154.521 C 185.408 156.581,188.753 158.580,189.034 158.299 C 189.143 158.190,188.325 157.626,187.216 157.047 C 176.268 151.322,170.312 136.486,174.365 125.034 C 174.825 123.733,175.116 122.583,175.010 122.477 C 174.905 122.372,174.733 122.536,174.629 122.843 M267.889 126.482 C 268.112 131.138,268.300 131.597,268.347 127.600 C 268.370 125.730,268.240 123.967,268.059 123.682 C 267.878 123.397,267.802 124.657,267.889 126.482 M225.802 125.440 C 225.977 126.078,226.356 127.680,226.644 129.000 L 227.167 131.400 227.012 129.400 C 226.798 126.640,226.385 124.838,225.896 124.535 C 225.623 124.367,225.591 124.672,225.802 125.440 M310.009 125.688 C 309.998 126.031,313.568 131.600,313.799 131.600 C 314.022 131.600,311.681 127.564,310.769 126.378 C 310.356 125.840,310.014 125.529,310.009 125.688 M314.012 132.032 C 314.006 132.159,314.765 133.617,315.700 135.271 C 318.570 140.348,321.595 146.881,324.572 154.425 C 325.564 156.941,326.382 158.724,326.388 158.386 C 326.432 156.136,314.126 129.931,314.012 132.032 M341.600 134.539 C 341.600 134.615,341.852 135.200,342.160 135.839 C 343.385 138.379,345.215 142.799,346.421 146.132 C 347.119 148.063,347.773 149.560,347.874 149.459 C 348.151 149.183,346.311 144.043,344.428 139.832 C 344.027 138.935,343.327 137.345,342.872 136.300 C 342.186 134.725,341.600 133.913,341.600 134.539 M226.864 136.416 C 226.829 136.975,226.526 138.485,226.190 139.773 C 225.681 141.728,225.639 143.690,226.143 141.957 C 226.233 141.651,226.522 140.678,226.785 139.796 C 227.049 138.913,227.189 137.563,227.096 136.796 C 226.977 135.809,226.909 135.698,226.864 136.416 M268.073 139.000 C 268.027 140.320,267.889 141.850,267.767 142.400 C 267.578 143.251,267.611 143.296,267.991 142.703 C 268.247 142.302,268.377 140.856,268.297 139.303 L 268.157 136.600 268.073 139.000 M224.249 145.005 C 222.092 149.717,217.429 154.638,212.884 157.001 C 211.720 157.606,210.854 158.187,210.960 158.293 C 211.726 159.059,219.120 153.438,221.510 150.272 C 223.302 147.900,225.808 143.275,225.481 142.947 C 225.371 142.838,224.817 143.764,224.249 145.005 M267.259 144.800 C 267.220 145.350,267.089 146.250,266.967 146.800 C 266.776 147.662,266.808 147.702,267.197 147.091 C 267.446 146.702,267.577 145.802,267.489 145.091 C 267.364 144.087,267.313 144.022,267.259 144.800 M348.000 150.171 C 348.000 150.455,350.971 160.892,351.936 164.000 L 352.371 165.400 352.147 164.000 C 351.670 161.024,348.000 148.784,348.000 150.171 M265.646 151.667 C 265.621 152.034,265.496 152.664,265.370 153.067 C 265.152 153.762,265.163 153.763,265.597 153.087 C 265.848 152.696,265.973 152.066,265.873 151.687 C 265.711 151.068,265.688 151.066,265.646 151.667 M264.846 154.267 C 264.821 154.524,264.684 155.064,264.541 155.467 C 264.340 156.036,264.394 156.097,264.779 155.742 C 265.052 155.491,265.189 154.951,265.084 154.542 C 264.979 154.134,264.872 154.010,264.846 154.267 M189.741 158.674 C 190.182 159.116,192.929 159.990,193.800 159.966 C 194.240 159.954,193.610 159.602,192.400 159.183 C 190.063 158.375,189.295 158.228,189.741 158.674 M207.200 159.304 C 205.456 159.946,203.947 160.122,199.915 160.156 C 197.118 160.180,195.138 160.322,195.515 160.472 C 196.792 160.979,203.385 160.775,205.800 160.155 C 207.120 159.815,208.608 159.440,209.106 159.321 C 210.098 159.084,210.766 158.371,209.924 158.448 C 209.636 158.474,208.410 158.860,207.200 159.304 M326.428 159.676 C 326.496 160.944,327.142 161.854,327.172 160.724 C 327.187 160.132,327.020 159.536,326.800 159.400 C 326.580 159.264,326.413 159.388,326.428 159.676 M48.673 160.553 C 48.523 160.945,48.411 161.566,48.425 161.933 C 48.442 162.375,48.581 162.274,48.837 161.634 C 49.049 161.103,49.161 160.482,49.085 160.254 C 49.009 160.027,48.824 160.161,48.673 160.553 M327.231 162.500 C 327.280 163.297,328.735 167.056,328.769 166.475 C 328.786 166.186,328.509 165.061,328.154 163.975 C 327.526 162.054,327.168 161.483,327.231 162.500 M47.800 164.000 C 47.648 164.691,47.614 165.347,47.724 165.457 C 47.834 165.567,48.048 165.091,48.200 164.400 C 48.352 163.709,48.386 163.053,48.276 162.943 C 48.166 162.833,47.952 163.309,47.800 164.000 M259.453 166.900 L 258.733 168.200 259.558 167.200 C 260.289 166.313,260.614 165.600,260.286 165.600 C 260.224 165.600,259.849 166.185,259.453 166.900 M352.487 166.400 C 352.483 166.950,352.624 167.850,352.800 168.400 C 353.231 169.744,353.231 168.292,352.800 166.600 C 352.526 165.522,352.494 165.502,352.487 166.400 M47.049 167.415 C 46.912 167.773,46.816 168.456,46.836 168.933 C 46.862 169.547,46.985 169.408,47.259 168.456 C 47.657 167.072,47.494 166.258,47.049 167.415 M329.079 168.800 C 329.210 169.790,329.470 171.017,329.658 171.526 C 329.846 172.035,330.014 172.935,330.032 173.526 C 330.049 174.117,330.162 174.351,330.283 174.047 C 330.495 173.512,329.862 170.055,329.176 168.000 C 328.951 167.324,328.919 167.583,329.079 168.800 M353.280 170.400 C 353.280 170.950,353.424 171.850,353.600 172.400 L 353.920 173.400 353.920 172.400 C 353.920 171.850,353.776 170.950,353.600 170.400 L 353.280 169.400 353.280 170.400 M46.178 172.178 C 46.027 172.981,45.994 173.727,46.104 173.837 C 46.214 173.947,46.427 173.381,46.578 172.578 C 46.728 171.775,46.762 171.028,46.652 170.918 C 46.542 170.808,46.328 171.375,46.178 172.178 M253.665 175.100 C 250.698 178.979,247.079 182.651,243.200 185.721 C 239.732 188.465,239.340 188.840,241.000 187.823 C 244.422 185.728,250.796 179.633,253.782 175.600 C 254.841 174.170,255.886 172.775,256.103 172.500 C 256.320 172.225,256.394 172.000,256.267 172.000 C 256.140 172.000,254.969 173.395,253.665 175.100 M330.638 176.200 C 330.970 178.184,331.202 178.504,331.194 176.967 C 331.191 176.325,331.004 175.530,330.779 175.200 C 330.486 174.770,330.446 175.054,330.638 176.200 M354.080 175.600 C 354.080 176.150,354.224 177.050,354.400 177.600 L 354.720 178.600 354.720 177.600 C 354.720 177.050,354.576 176.150,354.400 175.600 L 354.080 174.600 354.080 175.600 M45.449 177.015 C 45.312 177.373,45.218 178.146,45.240 178.733 C 45.273 179.591,45.352 179.495,45.646 178.240 C 46.022 176.639,45.895 175.853,45.449 177.015 M331.628 182.633 C 331.644 183.935,331.807 185.360,331.992 185.800 C 332.190 186.273,332.238 185.373,332.109 183.600 C 331.840 179.932,331.590 179.428,331.628 182.633 M354.863 181.600 C 354.854 182.150,354.995 183.320,355.177 184.200 L 355.508 185.800 355.514 184.200 C 355.517 183.320,355.376 182.150,355.200 181.600 L 354.880 180.600 354.863 181.600 M44.697 182.400 C 44.540 182.950,44.428 184.120,44.449 185.000 L 44.488 186.600 44.849 184.800 C 45.283 182.644,45.164 180.771,44.697 182.400 M332.544 190.400 C 332.544 192.490,332.612 193.345,332.694 192.300 C 332.776 191.255,332.776 189.545,332.694 188.500 C 332.612 187.455,332.544 188.310,332.544 190.400 M238.400 189.200 C 237.850 189.630,237.597 189.986,237.838 189.991 C 238.079 189.996,238.602 189.640,239.000 189.200 C 239.912 188.192,239.688 188.192,238.400 189.200 M355.800 200.400 C 355.800 206.670,355.917 210.810,356.060 209.600 C 356.391 206.806,356.387 195.022,356.053 191.600 C 355.914 190.170,355.800 194.130,355.800 200.400 M43.854 191.856 C 43.516 194.322,43.571 204.979,43.932 207.000 C 44.089 207.880,44.214 204.415,44.209 199.300 C 44.204 194.185,44.179 190.000,44.154 190.000 C 44.129 190.000,43.994 190.835,43.854 191.856 M332.934 197.200 C 332.934 198.850,333.005 199.525,333.091 198.700 C 333.178 197.875,333.178 196.525,333.091 195.700 C 333.005 194.875,332.934 195.550,332.934 197.200 M217.000 198.400 L 215.800 198.705 217.076 198.753 C 217.778 198.779,218.464 198.620,218.600 198.400 C 218.874 197.957,218.740 197.957,217.000 198.400 M213.200 199.200 C 211.816 199.491,211.814 199.495,213.000 199.541 C 213.660 199.567,214.470 199.413,214.800 199.200 C 215.466 198.770,215.245 198.770,213.200 199.200 M205.800 200.000 L 202.200 200.249 205.600 200.296 C 207.470 200.322,209.360 200.189,209.800 200.000 C 210.240 199.811,210.330 199.678,210.000 199.704 C 209.670 199.730,207.780 199.863,205.800 200.000 M191.600 200.819 C 190.523 200.997,191.327 201.033,193.600 200.908 C 195.690 200.793,197.475 200.631,197.567 200.549 C 197.841 200.303,193.535 200.498,191.600 200.819 M186.600 201.600 L 185.400 201.905 186.600 201.925 C 187.260 201.935,188.160 201.789,188.600 201.600 L 189.400 201.256 188.600 201.275 C 188.160 201.286,187.260 201.432,186.600 201.600 M182.200 202.417 C 180.815 202.703,176.927 204.041,173.045 205.568 C 172.409 205.818,171.970 206.103,172.069 206.203 C 172.168 206.302,173.768 205.794,175.625 205.073 C 178.747 203.862,179.735 203.539,183.600 202.469 C 185.306 201.997,184.402 201.964,182.200 202.417 M332.893 204.800 C 332.893 205.570,332.975 205.885,333.076 205.500 C 333.176 205.115,333.176 204.485,333.076 204.100 C 332.975 203.715,332.893 204.030,332.893 204.800 M169.001 207.447 C 159.101 212.529,147.578 222.866,143.414 230.400 C 142.832 231.453,143.784 230.347,146.168 227.200 C 152.384 218.994,162.602 210.547,170.100 207.416 C 170.925 207.071,171.600 206.702,171.600 206.595 C 171.600 206.225,170.993 206.424,169.001 207.447 M332.544 210.000 C 332.544 212.090,332.612 212.945,332.694 211.900 C 332.776 210.855,332.776 209.145,332.694 208.100 C 332.612 207.055,332.544 207.910,332.544 210.000 M44.474 215.400 C 44.464 216.280,44.611 217.360,44.800 217.800 L 45.144 218.600 45.149 217.800 C 45.152 217.360,45.005 216.280,44.823 215.400 L 44.492 213.800 44.474 215.400 M331.787 216.587 C 331.631 218.044,331.589 219.323,331.695 219.428 C 331.801 219.534,332.010 218.423,332.160 216.960 C 332.310 215.497,332.351 214.218,332.252 214.118 C 332.152 214.019,331.943 215.129,331.787 216.587 M355.040 216.342 C 354.881 217.740,354.837 218.970,354.942 219.076 C 355.208 219.341,355.727 214.979,355.507 214.328 C 355.410 214.038,355.199 214.944,355.040 216.342 M331.047 221.259 C 330.225 226.662,329.735 229.252,329.244 230.797 C 328.754 232.340,328.675 233.058,329.035 232.698 C 329.665 232.068,331.830 220.497,331.399 220.065 C 331.318 219.984,331.160 220.522,331.047 221.259 M354.200 222.400 C 354.046 223.310,354.011 224.144,354.121 224.254 C 354.231 224.364,354.446 223.710,354.600 222.800 C 354.754 221.890,354.789 221.056,354.679 220.946 C 354.569 220.836,354.354 221.490,354.200 222.400 M45.246 222.200 C 45.227 222.860,45.387 223.670,45.600 224.000 C 46.090 224.758,46.090 223.530,45.600 222.000 C 45.286 221.020,45.279 221.024,45.246 222.200 M46.006 227.433 C 46.009 228.075,46.196 228.870,46.421 229.200 C 46.714 229.630,46.754 229.346,46.562 228.200 C 46.230 226.216,45.998 225.896,46.006 227.433 M353.400 228.000 C 353.246 228.910,353.204 229.738,353.307 229.840 C 353.410 229.943,353.613 229.277,353.760 228.360 C 353.907 227.443,353.948 226.615,353.853 226.520 C 353.758 226.424,353.554 227.090,353.400 228.000 M352.582 232.182 C 352.429 233.202,352.394 234.127,352.504 234.237 C 352.614 234.347,352.829 233.602,352.982 232.582 C 353.135 231.561,353.170 230.637,353.060 230.527 C 352.950 230.417,352.735 231.161,352.582 232.182 M46.834 231.400 C 46.822 231.840,46.987 232.470,47.200 232.800 C 47.714 233.595,47.714 232.596,47.200 231.400 L 46.856 230.600 46.834 231.400 M142.198 232.002 C 141.798 232.444,141.566 232.899,141.682 233.015 C 141.797 233.130,142.190 232.769,142.555 232.212 C 143.352 230.996,143.193 230.902,142.198 232.002 M328.446 233.667 C 328.421 234.034,328.296 234.664,328.170 235.067 C 327.952 235.762,327.963 235.763,328.397 235.087 C 328.648 234.696,328.773 234.066,328.673 233.687 C 328.511 233.068,328.488 233.066,328.446 233.667 M139.579 236.842 C 137.879 240.223,135.464 246.398,135.736 246.669 C 135.822 246.755,136.311 245.695,136.823 244.313 C 137.334 242.931,138.610 239.955,139.657 237.700 C 141.928 232.811,141.878 232.268,139.579 236.842 M47.624 234.767 C 47.586 235.651,49.735 243.394,49.890 242.930 C 49.966 242.703,49.492 240.646,48.838 238.359 C 48.184 236.071,47.638 234.455,47.624 234.767 M351.419 237.494 C 349.467 245.005,346.586 253.971,345.023 257.400 C 343.796 260.092,343.200 261.733,343.384 261.917 C 343.490 262.024,343.758 261.635,343.979 261.054 C 344.200 260.473,344.729 259.233,345.153 258.299 C 347.303 253.570,352.838 235.504,352.301 234.968 C 352.203 234.869,351.805 236.006,351.419 237.494 M327.429 237.029 C 327.281 237.615,327.251 238.184,327.361 238.294 C 327.471 238.404,327.681 238.015,327.829 237.429 C 327.976 236.842,328.006 236.273,327.896 236.163 C 327.786 236.053,327.576 236.442,327.429 237.029 M197.074 238.342 C 196.675 238.500,197.973 238.629,199.959 238.629 C 201.945 238.629,203.352 238.490,203.085 238.320 C 202.483 237.938,198.059 237.954,197.074 238.342 M192.590 239.216 C 192.421 239.489,192.723 239.538,193.466 239.360 C 194.999 238.992,195.144 238.800,193.890 238.800 C 193.317 238.800,192.732 238.987,192.590 239.216 M205.233 238.944 C 205.705 239.350,207.643 239.593,207.410 239.216 C 207.268 238.987,206.683 238.800,206.110 238.800 C 205.536 238.800,205.142 238.865,205.233 238.944 M326.629 239.829 C 326.481 240.415,326.451 240.984,326.561 241.094 C 326.671 241.204,326.881 240.815,327.029 240.229 C 327.176 239.642,327.206 239.073,327.096 238.963 C 326.986 238.853,326.776 239.242,326.629 239.829 M325.399 243.491 C 325.005 244.541,324.370 246.120,323.987 247.000 C 323.605 247.880,322.881 249.680,322.378 251.000 C 321.876 252.320,320.314 255.714,318.908 258.543 C 317.502 261.371,316.418 263.751,316.499 263.833 C 316.581 263.914,317.835 261.600,319.287 258.690 C 322.049 253.154,326.635 242.102,326.306 241.773 C 326.201 241.668,325.793 242.441,325.399 243.491 M183.600 243.288 C 181.374 244.838,178.448 247.740,177.238 249.600 L 176.327 251.000 177.394 249.800 C 180.429 246.388,181.870 245.029,183.838 243.722 C 185.027 242.933,186.000 242.222,186.000 242.143 C 186.000 241.780,185.259 242.134,183.600 243.288 M214.551 242.524 C 217.321 244.281,220.864 247.464,222.368 249.548 C 223.341 250.895,224.214 251.920,224.308 251.825 C 224.511 251.622,222.413 248.840,220.413 246.661 C 219.005 245.127,214.734 241.979,214.122 242.024 C 213.945 242.036,214.138 242.261,214.551 242.524 M50.020 243.851 C 49.938 245.688,56.796 264.132,58.026 265.380 C 58.553 265.915,58.491 265.512,57.840 264.161 C 56.064 260.479,54.393 256.231,52.347 250.200 C 51.079 246.460,50.031 243.603,50.020 243.851 M135.246 247.667 C 135.221 248.034,135.096 248.664,134.970 249.067 C 134.752 249.762,134.763 249.763,135.197 249.087 C 135.448 248.696,135.573 248.066,135.473 247.687 C 135.311 247.068,135.288 247.066,135.246 247.667 M134.446 250.467 C 134.421 250.834,134.296 251.464,134.170 251.867 C 133.952 252.562,133.963 252.563,134.397 251.887 C 134.648 251.496,134.773 250.866,134.673 250.487 C 134.511 249.868,134.488 249.866,134.446 250.467 M175.414 252.235 C 175.041 252.804,174.827 253.361,174.939 253.472 C 175.050 253.583,175.429 253.118,175.781 252.437 C 176.559 250.933,176.344 250.815,175.414 252.235 M133.662 254.000 C 133.622 254.770,133.496 255.850,133.383 256.400 L 133.177 257.400 133.608 256.414 C 133.844 255.871,133.970 254.791,133.886 254.014 L 133.734 252.600 133.662 254.000 M132.871 260.200 C 132.827 261.080,132.699 262.520,132.585 263.400 C 132.406 264.790,132.435 264.871,132.807 264.018 C 133.042 263.478,133.171 262.038,133.093 260.818 C 132.983 259.088,132.934 258.952,132.871 260.200 M227.850 262.800 C 228.175 265.041,228.402 265.360,228.394 263.567 C 228.391 262.815,228.208 261.930,227.988 261.600 C 227.709 261.181,227.667 261.542,227.850 262.800 M171.867 261.867 C 171.503 262.230,171.539 270.884,171.906 271.463 C 172.068 271.717,172.200 269.602,172.200 266.763 C 172.200 263.924,172.185 261.601,172.167 261.600 C 172.148 261.600,172.013 261.720,171.867 261.867 M341.979 264.261 C 339.351 270.075,337.957 272.801,333.936 280.000 C 333.280 281.173,333.271 281.249,333.877 280.469 C 335.700 278.120,343.475 262.942,343.065 262.531 C 342.950 262.416,342.461 263.195,341.979 264.261 M313.870 268.061 C 312.615 270.075,311.662 271.796,311.752 271.886 C 311.843 271.976,312.863 270.463,314.021 268.525 C 316.522 264.336,316.487 264.400,316.299 264.400 C 316.218 264.400,315.125 266.047,313.870 268.061 M132.423 270.033 C 132.436 271.225,132.605 272.920,132.799 273.800 C 133.050 274.938,133.088 274.360,132.928 271.800 C 132.676 267.750,132.388 266.744,132.423 270.033 M228.062 269.200 C 228.022 269.750,227.877 270.650,227.740 271.200 C 227.549 271.968,227.603 272.096,227.973 271.753 C 228.251 271.494,228.387 270.650,228.295 269.753 C 228.204 268.874,228.103 268.634,228.062 269.200 M60.000 269.445 C 60.000 269.752,63.517 276.027,65.892 279.960 C 66.876 281.587,68.011 283.507,68.415 284.226 C 69.748 286.599,70.995 288.390,71.319 288.395 C 71.495 288.398,71.120 287.635,70.486 286.700 C 68.127 283.219,63.654 275.606,61.204 270.900 C 60.379 269.315,60.000 268.857,60.000 269.445 M310.131 274.008 C 309.653 274.889,309.409 275.518,309.590 275.406 C 310.090 275.097,311.614 272.400,311.287 272.403 C 311.129 272.405,310.609 273.127,310.131 274.008 M172.428 273.876 C 172.413 274.358,172.580 274.864,172.800 275.000 C 173.273 275.292,173.273 274.901,172.800 273.800 C 172.469 273.029,172.455 273.031,172.428 273.876 M307.906 277.292 C 307.326 278.003,306.932 278.665,307.030 278.763 C 307.215 278.949,308.116 277.911,308.821 276.700 C 309.448 275.622,309.070 275.867,307.906 277.292 M133.450 278.400 C 133.775 280.641,134.002 280.960,133.994 279.167 C 133.991 278.415,133.808 277.530,133.588 277.200 C 133.309 276.781,133.267 277.142,133.450 278.400 M303.606 282.820 C 297.448 290.626,285.061 302.823,280.960 305.118 C 280.546 305.350,280.305 305.639,280.426 305.759 C 280.659 305.993,284.822 302.675,289.659 298.401 C 291.276 296.971,294.533 293.713,296.896 291.160 C 300.497 287.270,302.371 285.036,306.510 279.700 C 306.723 279.425,306.800 279.200,306.680 279.200 C 306.560 279.200,305.177 280.829,303.606 282.820 M223.800 281.703 C 223.140 282.829,221.162 285.199,219.405 286.970 C 217.648 288.740,216.748 289.801,217.405 289.326 C 220.180 287.320,225.464 280.949,225.129 280.014 C 225.058 279.816,224.460 280.576,223.800 281.703 M134.238 282.200 C 134.570 284.184,134.802 284.504,134.794 282.967 C 134.791 282.325,134.604 281.530,134.379 281.200 C 134.086 280.770,134.046 281.054,134.238 282.200 M175.600 281.358 C 175.600 283.115,185.366 292.367,186.268 291.465 C 186.381 291.352,185.947 290.986,185.303 290.653 C 183.194 289.563,179.805 286.541,178.006 284.148 C 175.762 281.161,175.600 280.973,175.600 281.358 M329.945 286.225 C 328.274 288.741,327.018 290.796,327.153 290.790 C 327.466 290.778,333.303 281.969,333.120 281.786 C 333.045 281.712,331.617 283.709,329.945 286.225 M135.630 286.886 C 135.148 291.535,147.199 309.901,155.214 316.733 C 159.443 320.337,169.351 326.782,169.869 326.265 C 170.020 326.113,166.546 324.000,166.146 324.000 C 165.141 324.000,154.801 316.076,151.800 313.006 C 149.067 310.210,143.593 302.918,141.585 299.398 C 140.107 296.808,137.202 290.813,137.170 290.286 C 137.135 289.703,135.672 286.476,135.630 286.886 M71.622 289.000 C 71.627 289.529,72.742 290.991,72.969 290.765 C 73.066 290.668,72.802 290.141,72.382 289.594 C 71.961 289.047,71.620 288.780,71.622 289.000 M214.600 290.800 C 213.940 291.237,213.580 291.592,213.800 291.588 C 214.201 291.582,216.376 290.023,216.000 290.012 C 215.890 290.008,215.260 290.363,214.600 290.800 M73.677 291.916 C 76.444 295.708,78.250 297.985,78.495 297.992 C 78.657 297.996,77.609 296.470,76.166 294.600 C 74.722 292.730,73.454 291.200,73.348 291.200 C 73.242 291.200,73.390 291.522,73.677 291.916 M323.000 295.683 C 316.877 303.968,305.397 315.695,297.851 321.375 C 296.177 322.635,294.680 323.876,294.526 324.133 C 294.192 324.691,294.001 324.831,299.600 320.422 C 304.555 316.520,313.279 308.073,317.592 303.000 C 321.483 298.423,326.106 292.395,325.706 292.418 C 325.538 292.428,324.320 293.897,323.000 295.683 M193.790 294.384 C 193.932 294.613,194.517 294.800,195.090 294.800 C 196.344 294.800,196.199 294.608,194.666 294.240 C 193.923 294.062,193.621 294.111,193.790 294.384 M204.800 294.400 L 203.800 294.720 204.876 294.760 C 205.468 294.782,206.064 294.620,206.200 294.400 C 206.481 293.945,206.220 293.945,204.800 294.400 M79.014 298.800 C 81.110 302.478,99.891 321.200,101.485 321.200 C 101.824 321.200,101.871 321.244,96.000 316.109 C 91.676 312.327,83.932 304.427,80.602 300.400 C 78.865 298.300,78.545 297.977,79.014 298.800 M278.810 306.588 C 278.542 306.911,277.530 307.676,276.562 308.288 C 275.594 308.900,274.801 309.546,274.801 309.725 C 274.800 309.904,275.565 309.494,276.500 308.816 C 279.466 306.662,280.212 306.018,279.749 306.009 C 279.501 306.004,279.078 306.265,278.810 306.588 M273.000 310.800 C 272.602 311.240,272.111 311.600,271.910 311.600 C 271.709 311.600,270.759 312.140,269.800 312.800 C 268.841 313.460,267.941 314.000,267.800 314.000 C 267.659 314.000,266.792 314.517,265.872 315.150 C 264.356 316.193,257.627 319.566,252.000 322.104 C 250.790 322.650,248.090 323.680,246.000 324.393 C 242.282 325.662,240.647 326.363,241.353 326.388 C 242.301 326.421,249.664 323.605,255.200 321.094 C 262.677 317.701,275.780 310.042,274.162 310.009 C 273.921 310.004,273.398 310.360,273.000 310.800 M102.008 321.505 C 102.013 321.667,103.220 322.700,104.692 323.800 C 108.645 326.755,108.800 326.862,108.800 326.652 C 108.800 326.546,107.270 325.278,105.400 323.834 C 103.530 322.391,102.004 321.343,102.008 321.505 M170.400 326.622 C 170.400 327.113,178.891 330.427,179.998 330.368 C 180.532 330.340,180.532 330.314,180.000 330.136 C 177.326 329.240,171.726 327.029,171.420 326.748 C 170.993 326.357,170.400 326.284,170.400 326.622 M239.200 326.800 C 238.712 327.115,238.764 327.189,239.476 327.194 C 239.958 327.197,240.464 327.020,240.600 326.800 C 240.915 326.291,239.988 326.291,239.200 326.800 M109.210 327.116 C 109.221 327.450,118.015 333.318,118.211 333.122 C 118.285 333.049,116.287 331.603,113.772 329.910 C 111.258 328.217,109.204 326.960,109.210 327.116 M286.805 329.472 C 282.739 332.241,282.015 332.810,283.600 331.992 C 284.423 331.568,290.190 327.824,290.767 327.340 C 292.145 326.183,289.713 327.493,286.805 329.472 M236.600 327.600 L 235.800 327.944 236.600 327.966 C 237.040 327.978,237.670 327.813,238.000 327.600 C 238.795 327.086,237.796 327.086,236.600 327.600 M232.200 328.652 C 230.880 328.979,228.720 329.530,227.400 329.876 C 226.080 330.222,224.010 330.635,222.800 330.794 L 220.600 331.082 222.372 331.141 C 223.346 331.174,224.696 331.032,225.372 330.827 C 227.196 330.273,229.528 329.691,232.000 329.171 C 234.421 328.662,236.168 328.053,235.200 328.056 C 234.870 328.057,233.520 328.325,232.200 328.652 M181.200 330.782 C 181.530 331.005,182.145 331.191,182.567 331.194 C 183.590 331.202,183.271 330.973,181.800 330.644 C 180.924 330.448,180.762 330.485,181.200 330.782 M184.045 331.600 C 184.350 331.762,185.680 331.992,187.000 332.112 C 188.320 332.231,189.040 332.190,188.600 332.020 C 187.541 331.611,183.332 331.223,184.045 331.600 M213.800 331.985 C 213.330 332.178,214.073 332.226,215.600 332.102 C 217.030 331.987,218.275 331.826,218.367 331.746 C 218.704 331.451,214.574 331.667,213.800 331.985 M189.633 332.544 C 189.725 332.624,191.420 332.785,193.400 332.903 C 195.848 333.049,196.488 333.010,195.400 332.782 C 193.820 332.450,189.310 332.265,189.633 332.544 M206.100 332.696 C 207.365 332.775,209.435 332.775,210.700 332.696 C 211.965 332.616,210.930 332.551,208.400 332.551 C 205.870 332.551,204.835 332.616,206.100 332.696 M277.400 335.233 C 269.761 339.702,258.539 344.987,252.400 347.008 C 251.190 347.406,250.443 347.813,250.739 347.912 C 251.036 348.012,251.666 347.909,252.139 347.683 C 252.613 347.458,254.173 346.824,255.608 346.275 C 260.888 344.254,269.227 340.315,274.600 337.304 C 280.196 334.167,283.116 332.313,282.300 332.412 C 282.245 332.419,280.040 333.688,277.400 335.233 M200.500 333.087 C 201.105 333.178,202.095 333.178,202.700 333.087 C 203.305 332.995,202.810 332.920,201.600 332.920 C 200.390 332.920,199.895 332.995,200.500 333.087 M119.531 333.888 C 121.885 335.686,137.094 343.439,137.491 343.043 C 137.594 342.940,136.805 342.462,135.739 341.981 C 132.408 340.479,123.625 336.025,122.077 335.054 C 121.265 334.544,120.150 333.913,119.600 333.651 L 118.600 333.177 119.531 333.888 M140.172 344.383 C 141.476 345.052,142.727 345.600,142.952 345.600 C 143.683 345.600,142.667 344.946,140.800 344.216 C 137.835 343.057,137.671 343.100,140.172 344.383 M145.000 346.329 C 149.814 348.587,167.825 353.606,169.288 353.097 C 169.569 352.998,168.990 352.787,168.000 352.626 C 164.869 352.119,155.595 349.604,150.200 347.800 C 143.393 345.523,143.115 345.445,145.000 346.329 M243.200 349.795 C 240.010 350.731,236.770 351.693,236.000 351.934 L 234.600 352.371 236.000 352.147 C 237.709 351.873,249.632 348.502,249.924 348.209 C 250.350 347.783,248.861 348.135,243.200 349.795 M229.600 353.138 C 227.950 353.482,226.880 353.823,227.221 353.896 C 227.563 353.969,229.363 353.678,231.221 353.250 C 235.227 352.328,233.921 352.238,229.600 353.138 M171.000 353.600 C 171.660 353.768,172.560 353.914,173.000 353.925 L 173.800 353.944 173.000 353.600 C 172.560 353.411,171.660 353.265,171.000 353.275 L 169.800 353.295 171.000 353.600 M176.400 354.400 C 176.950 354.576,177.850 354.720,178.400 354.720 L 179.400 354.720 178.400 354.400 C 177.850 354.224,176.950 354.080,176.400 354.080 L 175.400 354.080 176.400 354.400 M222.400 354.400 L 221.400 354.720 222.400 354.720 C 222.950 354.720,223.850 354.576,224.400 354.400 L 225.400 354.080 224.400 354.080 C 223.850 354.080,222.950 354.224,222.400 354.400 M181.800 355.200 C 182.460 355.368,183.720 355.504,184.600 355.503 L 186.200 355.500 184.400 355.180 C 181.957 354.745,180.070 354.760,181.800 355.200 M215.600 355.200 L 214.200 355.495 215.800 355.507 C 216.680 355.515,217.850 355.376,218.400 355.200 C 219.769 354.762,217.683 354.762,215.600 355.200 M190.400 356.060 C 193.194 356.391,204.978 356.387,208.400 356.053 C 209.830 355.914,205.870 355.800,199.600 355.800 C 193.330 355.800,189.190 355.917,190.400 356.060 " stroke="none" fill="#a17bd4" fill-rule="evenodd"></path><path id="path2" d="M198.700 44.296 C 200.075 44.374,202.325 44.374,203.700 44.296 C 205.075 44.218,203.950 44.154,201.200 44.154 C 198.450 44.154,197.325 44.218,198.700 44.296 M187.300 44.691 C 188.125 44.778,189.475 44.778,190.300 44.691 C 191.125 44.605,190.450 44.534,188.800 44.534 C 187.150 44.534,186.475 44.605,187.300 44.691 M211.100 44.682 C 211.595 44.778,212.405 44.778,212.900 44.682 C 213.395 44.587,212.990 44.509,212.000 44.509 C 211.010 44.509,210.605 44.587,211.100 44.682 M179.505 45.483 C 180.002 45.579,180.722 45.575,181.105 45.475 C 181.487 45.375,181.080 45.296,180.200 45.301 C 179.320 45.305,179.007 45.387,179.505 45.483 M218.500 45.476 C 218.885 45.576,219.515 45.576,219.900 45.476 C 220.285 45.375,219.970 45.293,219.200 45.293 C 218.430 45.293,218.115 45.375,218.500 45.476 M168.600 47.200 C 167.581 47.638,168.632 47.638,170.000 47.200 C 170.804 46.943,170.843 46.877,170.200 46.868 C 169.760 46.862,169.040 47.011,168.600 47.200 M237.000 48.800 C 237.440 48.989,238.070 49.144,238.400 49.144 C 238.778 49.144,238.704 49.017,238.200 48.800 C 237.760 48.611,237.130 48.456,236.800 48.456 C 236.422 48.456,236.496 48.583,237.000 48.800 M155.800 50.400 C 155.296 50.617,155.222 50.744,155.600 50.744 C 155.930 50.744,156.560 50.589,157.000 50.400 C 157.504 50.183,157.578 50.056,157.200 50.056 C 156.870 50.056,156.240 50.211,155.800 50.400 M243.000 50.400 C 243.440 50.589,244.070 50.744,244.400 50.744 C 244.778 50.744,244.704 50.617,244.200 50.400 C 243.760 50.211,243.130 50.056,242.800 50.056 C 242.422 50.056,242.496 50.183,243.000 50.400 M140.400 55.800 C 139.850 56.114,139.580 56.372,139.800 56.372 C 140.020 56.372,140.650 56.114,141.200 55.800 C 141.750 55.486,142.020 55.228,141.800 55.228 C 141.580 55.228,140.950 55.486,140.400 55.800 M251.600 77.800 C 252.150 78.114,252.780 78.372,253.000 78.372 C 253.220 78.372,252.950 78.114,252.400 77.800 C 251.850 77.486,251.220 77.228,251.000 77.228 C 250.780 77.228,251.050 77.486,251.600 77.800 M95.730 84.009 C 94.591 85.104,93.788 86.000,93.945 86.000 C 94.102 86.000,95.117 85.100,96.200 84.000 C 98.744 81.418,98.417 81.424,95.730 84.009 M248.600 86.400 C 250.128 87.940,251.469 89.200,251.579 89.200 C 251.689 89.200,250.528 87.940,249.000 86.400 C 247.472 84.860,246.131 83.600,246.021 83.600 C 245.911 83.600,247.072 84.860,248.600 86.400 M264.400 83.779 C 264.400 83.889,264.940 84.259,265.600 84.600 C 266.260 84.941,266.800 85.131,266.800 85.021 C 266.800 84.911,266.260 84.541,265.600 84.200 C 264.940 83.859,264.400 83.669,264.400 83.779 M304.841 84.900 C 304.937 84.955,305.912 85.810,307.007 86.800 L 309.000 88.600 307.217 86.700 C 306.236 85.655,305.261 84.800,305.050 84.800 C 304.839 84.800,304.745 84.845,304.841 84.900 M267.200 85.379 C 267.200 85.489,267.740 85.859,268.400 86.200 C 269.060 86.541,269.600 86.731,269.600 86.621 C 269.600 86.511,269.060 86.141,268.400 85.800 C 267.740 85.459,267.200 85.269,267.200 85.379 M88.000 91.400 C 87.028 92.390,86.323 93.200,86.433 93.200 C 86.543 93.200,87.428 92.390,88.400 91.400 C 89.372 90.410,90.077 89.600,89.967 89.600 C 89.857 89.600,88.972 90.410,88.000 91.400 M251.600 89.725 C 251.600 89.794,252.185 90.379,252.900 91.025 L 254.200 92.200 253.025 90.900 C 251.930 89.688,251.600 89.416,251.600 89.725 M278.400 92.533 C 278.400 92.643,279.120 93.303,280.000 94.000 C 280.880 94.697,281.600 95.177,281.600 95.067 C 281.600 94.957,280.880 94.297,280.000 93.600 C 279.120 92.903,278.400 92.423,278.400 92.533 M312.400 92.510 C 312.400 92.571,313.795 93.966,315.500 95.610 L 318.600 98.600 315.610 95.500 C 312.833 92.621,312.400 92.217,312.400 92.510 M83.064 96.863 C 81.560 98.589,80.413 100.000,80.515 100.000 C 80.805 100.000,86.120 93.983,85.950 93.847 C 85.868 93.781,84.569 95.138,83.064 96.863 M293.594 105.700 C 298.606 110.809,299.200 111.381,299.200 111.094 C 299.200 111.036,296.725 108.561,293.700 105.594 L 288.200 100.200 293.594 105.700 M198.711 105.893 C 199.651 105.978,201.091 105.977,201.911 105.891 C 202.730 105.805,201.960 105.736,200.200 105.737 C 198.440 105.739,197.770 105.809,198.711 105.893 M187.500 108.629 C 185.949 109.470,186.125 109.761,187.700 108.959 C 189.208 108.193,189.475 107.994,188.967 108.016 C 188.765 108.025,188.105 108.301,187.500 108.629 M183.287 111.500 C 182.330 112.435,182.314 112.481,183.181 111.806 C 184.888 110.476,184.969 110.400,184.686 110.400 C 184.536 110.400,183.906 110.895,183.287 111.500 M219.200 113.800 C 219.946 114.570,220.647 115.200,220.757 115.200 C 220.867 115.200,220.346 114.570,219.600 113.800 C 218.854 113.030,218.153 112.400,218.043 112.400 C 217.933 112.400,218.454 113.030,219.200 113.800 M301.200 113.800 C 301.946 114.570,302.647 115.200,302.757 115.200 C 302.867 115.200,302.346 114.570,301.600 113.800 C 300.854 113.030,300.153 112.400,300.043 112.400 C 299.933 112.400,300.454 113.030,301.200 113.800 M221.594 116.603 C 223.187 118.521,223.321 118.645,222.886 117.796 C 222.659 117.353,222.052 116.634,221.537 116.198 C 220.633 115.434,220.635 115.448,221.594 116.603 M331.215 116.200 C 331.217 116.420,331.586 117.050,332.036 117.600 C 332.579 118.264,332.715 118.331,332.440 117.800 C 331.766 116.495,331.212 115.772,331.215 116.200 M267.693 125.600 C 267.693 126.370,267.775 126.685,267.876 126.300 C 267.976 125.915,267.976 125.285,267.876 124.900 C 267.775 124.515,267.693 124.830,267.693 125.600 M227.342 133.400 C 227.341 135.380,227.408 136.240,227.492 135.312 C 227.576 134.384,227.577 132.764,227.495 131.712 C 227.412 130.660,227.343 131.420,227.342 133.400 M172.537 133.400 C 172.539 135.160,172.609 135.830,172.693 134.889 C 172.778 133.949,172.777 132.509,172.691 131.689 C 172.605 130.870,172.536 131.640,172.537 133.400 M314.255 132.056 C 314.872 133.015,316.861 136.680,318.676 140.200 C 320.490 143.720,321.981 146.462,321.988 146.294 C 322.027 145.320,314.362 131.071,313.517 130.549 C 313.307 130.419,313.639 131.097,314.255 132.056 M268.137 133.800 C 268.139 135.560,268.209 136.230,268.293 135.289 C 268.378 134.349,268.377 132.909,268.291 132.089 C 268.205 131.270,268.136 132.040,268.137 133.800 M56.465 139.017 C 55.795 140.488,55.923 140.802,56.647 139.465 C 56.986 138.840,57.188 138.254,57.096 138.163 C 57.005 138.071,56.721 138.456,56.465 139.017 M175.800 146.800 C 176.141 147.460,176.511 148.000,176.621 148.000 C 176.731 148.000,176.541 147.460,176.200 146.800 C 175.859 146.140,175.489 145.600,175.379 145.600 C 175.269 145.600,175.459 146.140,175.800 146.800 M223.800 146.800 C 223.459 147.460,223.269 148.000,223.379 148.000 C 223.489 148.000,223.859 147.460,224.200 146.800 C 224.541 146.140,224.731 145.600,224.621 145.600 C 224.511 145.600,224.141 146.140,223.800 146.800 M221.775 149.868 C 221.159 150.676,220.859 151.211,221.109 151.056 C 221.621 150.740,223.353 148.400,223.075 148.400 C 222.976 148.400,222.391 149.061,221.775 149.868 M179.200 151.725 C 179.200 151.794,179.785 152.379,180.500 153.025 L 181.800 154.200 180.625 152.900 C 179.530 151.688,179.200 151.416,179.200 151.725 M219.375 152.900 L 218.200 154.200 219.500 153.025 C 220.215 152.379,220.800 151.794,220.800 151.725 C 220.800 151.416,220.470 151.688,219.375 152.900 M182.144 154.309 C 182.460 154.821,184.800 156.553,184.800 156.275 C 184.800 156.176,184.139 155.591,183.332 154.975 C 182.524 154.359,181.989 154.059,182.144 154.309 M194.200 160.400 C 194.640 160.589,195.270 160.744,195.600 160.744 C 195.978 160.744,195.904 160.617,195.400 160.400 C 194.960 160.211,194.330 160.056,194.000 160.056 C 193.622 160.056,193.696 160.183,194.200 160.400 M258.553 167.700 C 257.176 170.036,257.086 170.235,257.787 169.400 C 258.600 168.432,259.300 167.200,259.038 167.200 C 258.933 167.200,258.715 167.425,258.553 167.700 M255.775 171.868 C 255.159 172.676,254.859 173.211,255.109 173.056 C 255.621 172.740,257.353 170.400,257.075 170.400 C 256.976 170.400,256.391 171.061,255.775 171.868 M46.093 175.200 C 46.093 175.970,46.175 176.285,46.276 175.900 C 46.376 175.515,46.376 174.885,46.276 174.500 C 46.175 174.115,46.093 174.430,46.093 175.200 M250.581 178.500 L 249.000 180.200 250.700 178.619 C 252.281 177.148,252.584 176.800,252.281 176.800 C 252.216 176.800,251.451 177.565,250.581 178.500 M354.501 179.800 C 354.505 180.680,354.587 180.993,354.683 180.495 C 354.779 179.998,354.775 179.278,354.675 178.895 C 354.575 178.513,354.496 178.920,354.501 179.800 M45.293 180.800 C 45.293 181.570,45.375 181.885,45.476 181.500 C 45.576 181.115,45.576 180.485,45.476 180.100 C 45.375 179.715,45.293 180.030,45.293 180.800 M245.578 183.500 L 244.200 185.000 245.700 183.622 C 247.096 182.338,247.384 182.000,247.078 182.000 C 247.012 182.000,246.337 182.675,245.578 183.500 M355.328 188.000 C 355.328 189.430,355.401 190.015,355.489 189.300 C 355.578 188.585,355.578 187.415,355.489 186.700 C 355.401 185.985,355.328 186.570,355.328 188.000 M44.514 188.200 C 44.517 189.300,44.595 189.703,44.687 189.095 C 44.779 188.486,44.777 187.586,44.682 187.095 C 44.587 186.603,44.511 187.100,44.514 188.200 M236.600 190.000 C 235.940 190.437,235.580 190.792,235.800 190.788 C 236.201 190.782,238.376 189.223,238.000 189.212 C 237.890 189.208,237.260 189.563,236.600 190.000 M332.924 192.200 C 332.926 193.520,333.001 194.012,333.090 193.293 C 333.179 192.574,333.177 191.494,333.086 190.893 C 332.995 190.292,332.922 190.880,332.924 192.200 M44.154 198.800 C 44.154 201.550,44.218 202.675,44.296 201.300 C 44.374 199.925,44.374 197.675,44.296 196.300 C 44.218 194.925,44.154 196.050,44.154 198.800 M355.746 198.600 C 355.747 200.800,355.814 201.649,355.895 200.487 C 355.976 199.324,355.976 197.524,355.893 196.487 C 355.811 195.449,355.745 196.400,355.746 198.600 M333.340 201.200 C 333.340 203.070,333.409 203.835,333.493 202.900 C 333.577 201.965,333.577 200.435,333.493 199.500 C 333.409 198.565,333.340 199.330,333.340 201.200 M196.900 200.294 C 197.945 200.376,199.655 200.376,200.700 200.294 C 201.745 200.212,200.890 200.144,198.800 200.144 C 196.710 200.144,195.855 200.212,196.900 200.294 M355.720 204.800 C 355.720 206.010,355.795 206.505,355.887 205.900 C 355.978 205.295,355.978 204.305,355.887 203.700 C 355.795 203.095,355.720 203.590,355.720 204.800 M332.893 207.200 C 332.893 207.970,332.975 208.285,333.076 207.900 C 333.176 207.515,333.176 206.885,333.076 206.500 C 332.975 206.115,332.893 206.430,332.893 207.200 M44.534 211.200 C 44.534 212.850,44.605 213.525,44.691 212.700 C 44.778 211.875,44.778 210.525,44.691 209.700 C 44.605 208.875,44.534 209.550,44.534 211.200 M355.301 212.600 C 355.305 213.480,355.387 213.793,355.483 213.295 C 355.579 212.798,355.575 212.078,355.475 211.695 C 355.375 211.313,355.296 211.720,355.301 212.600 M159.000 213.435 L 157.800 214.466 159.100 213.606 C 159.815 213.133,160.400 212.668,160.400 212.573 C 160.400 212.273,160.231 212.378,159.000 213.435 M156.175 215.700 L 155.000 217.000 156.300 215.825 C 157.512 214.730,157.784 214.400,157.475 214.400 C 157.406 214.400,156.821 214.985,156.175 215.700 M45.301 219.800 C 45.305 220.680,45.387 220.993,45.483 220.495 C 45.579 219.998,45.575 219.278,45.475 218.895 C 45.375 218.513,45.296 218.920,45.301 219.800 M150.800 220.600 C 149.828 221.590,149.123 222.400,149.233 222.400 C 149.343 222.400,150.228 221.590,151.200 220.600 C 152.172 219.610,152.877 218.800,152.767 218.800 C 152.657 218.800,151.772 219.610,150.800 220.600 M142.399 231.300 C 141.810 232.104,141.713 232.384,142.145 232.033 C 142.801 231.500,143.793 230.000,143.489 230.000 C 143.413 230.000,142.922 230.585,142.399 231.300 M199.100 238.682 C 199.595 238.778,200.405 238.778,200.900 238.682 C 201.395 238.587,200.990 238.509,200.000 238.509 C 199.010 238.509,198.605 238.587,199.100 238.682 M350.229 240.629 C 350.081 241.215,350.038 241.772,350.132 241.866 C 350.227 241.960,350.424 241.558,350.571 240.971 C 350.719 240.385,350.762 239.828,350.668 239.734 C 350.573 239.640,350.376 240.042,350.229 240.629 M50.056 242.800 C 50.056 243.130,50.211 243.760,50.400 244.200 C 50.617 244.704,50.744 244.778,50.744 244.400 C 50.744 244.070,50.589 243.440,50.400 243.000 C 50.183 242.496,50.056 242.422,50.056 242.800 M177.123 250.300 C 176.418 251.121,175.890 252.000,176.101 252.000 C 176.183 252.000,176.649 251.460,177.137 250.800 C 178.101 249.496,178.092 249.172,177.123 250.300 M321.472 254.219 C 320.532 256.189,320.664 256.524,321.647 254.662 C 322.093 253.816,322.387 253.054,322.301 252.967 C 322.214 252.881,321.841 253.444,321.472 254.219 M319.580 258.039 C 319.120 258.940,318.813 259.746,318.897 259.830 C 318.981 259.914,319.441 259.176,319.919 258.191 C 321.009 255.947,320.715 255.815,319.580 258.039 M55.228 258.200 C 55.228 258.420,55.486 259.050,55.800 259.600 C 56.114 260.150,56.372 260.420,56.372 260.200 C 56.372 259.980,56.114 259.350,55.800 258.800 C 55.486 258.250,55.228 257.980,55.228 258.200 M316.688 263.783 C 315.722 265.644,315.087 267.070,315.276 266.953 C 315.676 266.706,318.900 260.400,318.626 260.400 C 318.526 260.400,317.654 261.922,316.688 263.783 M132.128 266.800 C 132.128 268.230,132.201 268.815,132.289 268.100 C 132.378 267.385,132.378 266.215,132.289 265.500 C 132.201 264.785,132.128 265.370,132.128 266.800 M228.114 266.600 C 228.117 267.700,228.195 268.103,228.287 267.495 C 228.379 266.886,228.377 265.986,228.282 265.495 C 228.187 265.003,228.111 265.500,228.114 266.600 M180.000 286.600 C 180.746 287.370,181.447 288.000,181.557 288.000 C 181.667 288.000,181.146 287.370,180.400 286.600 C 179.654 285.830,178.953 285.200,178.843 285.200 C 178.733 285.200,179.254 285.830,180.000 286.600 M219.381 286.900 L 217.800 288.600 219.500 287.019 C 221.081 285.548,221.384 285.200,221.081 285.200 C 221.016 285.200,220.251 285.965,219.381 286.900 M299.385 288.500 L 297.400 290.600 299.500 288.615 C 301.451 286.771,301.783 286.400,301.485 286.400 C 301.422 286.400,300.477 287.345,299.385 288.500 M216.200 289.450 C 215.481 290.062,215.334 290.305,215.833 290.057 C 216.566 289.693,217.941 288.376,217.549 288.414 C 217.467 288.422,216.860 288.888,216.200 289.450 M294.181 294.100 L 292.600 295.800 294.300 294.219 C 295.235 293.349,296.000 292.584,296.000 292.519 C 296.000 292.216,295.652 292.519,294.181 294.100 M196.905 294.687 C 197.514 294.779,198.414 294.777,198.905 294.682 C 199.397 294.587,198.900 294.511,197.800 294.514 C 196.700 294.517,196.297 294.595,196.905 294.687 M201.500 294.682 C 201.995 294.778,202.805 294.778,203.300 294.682 C 203.795 294.587,203.390 294.509,202.400 294.509 C 201.410 294.509,201.005 294.587,201.500 294.682 M290.975 297.300 L 289.800 298.600 291.100 297.425 C 291.815 296.779,292.400 296.194,292.400 296.125 C 292.400 295.816,292.070 296.088,290.975 297.300 M83.183 303.300 C 84.164 304.345,85.019 305.200,85.083 305.200 C 85.384 305.200,85.066 304.841,83.300 303.183 L 81.400 301.400 83.183 303.300 M145.358 306.220 C 146.129 307.331,147.164 308.591,147.658 309.020 C 148.153 309.449,147.937 309.019,147.179 308.065 C 144.694 304.937,143.931 304.163,145.358 306.220 M312.786 307.500 L 310.600 309.800 312.900 307.614 C 315.037 305.582,315.383 305.200,315.086 305.200 C 315.024 305.200,313.989 306.235,312.786 307.500 M91.200 311.800 C 92.617 313.230,93.867 314.400,93.977 314.400 C 94.087 314.400,93.017 313.230,91.600 311.800 C 90.183 310.370,88.933 309.200,88.823 309.200 C 88.713 309.200,89.783 310.370,91.200 311.800 M151.583 313.700 C 153.241 315.466,153.600 315.784,153.600 315.483 C 153.600 315.419,152.745 314.564,151.700 313.583 L 149.800 311.800 151.583 313.700 M95.600 315.800 C 96.346 316.570,97.047 317.200,97.157 317.200 C 97.267 317.200,96.746 316.570,96.000 315.800 C 95.254 315.030,94.553 314.400,94.443 314.400 C 94.333 314.400,94.854 315.030,95.600 315.800 M303.385 316.500 L 301.400 318.600 303.500 316.615 C 305.451 314.771,305.783 314.400,305.485 314.400 C 305.422 314.400,304.477 315.345,303.385 316.500 M258.400 319.600 C 257.630 320.022,257.180 320.366,257.400 320.366 C 257.620 320.366,258.430 320.022,259.200 319.600 C 259.970 319.178,260.420 318.834,260.200 318.834 C 259.980 318.834,259.170 319.178,258.400 319.600 M254.000 321.600 C 253.230 322.022,252.780 322.366,253.000 322.366 C 253.220 322.366,254.030 322.022,254.800 321.600 C 255.570 321.178,256.020 320.834,255.800 320.834 C 255.580 320.834,254.770 321.178,254.000 321.600 M204.500 333.087 C 205.105 333.178,206.095 333.178,206.700 333.087 C 207.305 332.995,206.810 332.920,205.600 332.920 C 204.390 332.920,203.895 332.995,204.500 333.087 M197.091 333.489 C 197.801 333.577,199.061 333.579,199.891 333.492 C 200.721 333.405,200.140 333.333,198.600 333.331 C 197.060 333.329,196.381 333.400,197.091 333.489 M122.800 335.379 C 122.800 335.489,123.340 335.859,124.000 336.200 C 124.660 336.541,125.200 336.731,125.200 336.621 C 125.200 336.511,124.660 336.141,124.000 335.800 C 123.340 335.459,122.800 335.269,122.800 335.379 M245.800 348.800 C 245.296 349.017,245.222 349.144,245.600 349.144 C 245.930 349.144,246.560 348.989,247.000 348.800 C 247.504 348.583,247.578 348.456,247.200 348.456 C 246.870 348.456,246.240 348.611,245.800 348.800 M158.600 350.400 C 159.040 350.589,159.670 350.744,160.000 350.744 C 160.378 350.744,160.304 350.617,159.800 350.400 C 159.360 350.211,158.730 350.056,158.400 350.056 C 158.022 350.056,158.096 350.183,158.600 350.400 M173.000 353.581 C 173.768 353.929,175.910 354.156,175.567 353.853 C 175.475 353.772,174.680 353.596,173.800 353.462 C 172.685 353.293,172.442 353.329,173.000 353.581 M179.700 354.676 C 180.085 354.776,180.715 354.776,181.100 354.676 C 181.485 354.575,181.170 354.493,180.400 354.493 C 179.630 354.493,179.315 354.575,179.700 354.676 M219.505 354.683 C 220.002 354.779,220.722 354.775,221.105 354.675 C 221.487 354.575,221.080 354.496,220.200 354.501 C 219.320 354.505,219.007 354.587,219.505 354.683 M186.705 355.483 C 187.202 355.579,187.922 355.575,188.305 355.475 C 188.687 355.375,188.280 355.296,187.400 355.301 C 186.520 355.305,186.207 355.387,186.705 355.483 M211.107 355.490 C 211.826 355.579,212.906 355.577,213.507 355.486 C 214.108 355.395,213.520 355.322,212.200 355.324 C 210.880 355.326,210.388 355.401,211.107 355.490 M194.100 355.887 C 194.705 355.978,195.695 355.978,196.300 355.887 C 196.905 355.795,196.410 355.720,195.200 355.720 C 193.990 355.720,193.495 355.795,194.100 355.887 M199.513 355.895 C 200.676 355.976,202.476 355.976,203.513 355.893 C 204.551 355.811,203.600 355.745,201.400 355.746 C 199.200 355.747,198.351 355.814,199.513 355.895 " stroke="none" fill="#b597dd" fill-rule="evenodd"></path><path id="path3" d="M34.200 0.292 C 33.320 0.381,32.429 0.621,32.220 0.827 C 32.011 1.032,31.246 1.200,30.520 1.200 C 29.794 1.200,29.200 1.380,29.200 1.600 C 29.200 1.820,28.838 2.000,28.395 2.000 C 27.952 2.000,27.232 2.180,26.795 2.400 C 26.358 2.620,25.642 2.980,25.205 3.200 C 24.768 3.420,24.138 3.600,23.805 3.600 C 23.472 3.600,23.200 3.780,23.200 4.000 C 23.200 4.220,22.964 4.400,22.675 4.400 C 22.387 4.400,21.764 4.760,21.292 5.200 C 20.820 5.640,20.196 6.000,19.905 6.000 C 19.614 6.000,19.117 6.360,18.800 6.800 C 18.483 7.240,17.968 7.600,17.655 7.600 C 17.342 7.600,16.572 8.138,15.943 8.796 C 15.314 9.454,14.795 9.859,14.788 9.696 C 14.781 9.533,14.592 9.715,14.368 10.100 C 14.144 10.485,13.733 10.800,13.455 10.800 C 12.835 10.800,10.800 12.871,10.800 13.502 C 10.800 13.754,10.485 14.144,10.100 14.368 C 9.715 14.592,9.533 14.781,9.696 14.788 C 9.859 14.795,9.454 15.314,8.796 15.943 C 8.138 16.572,7.600 17.342,7.600 17.655 C 7.600 17.968,7.240 18.483,6.800 18.800 C 6.360 19.117,6.000 19.614,6.000 19.905 C 6.000 20.196,5.640 20.820,5.200 21.292 C 4.760 21.764,4.400 22.387,4.400 22.675 C 4.400 22.964,4.220 23.200,4.000 23.200 C 3.780 23.200,3.600 23.472,3.600 23.805 C 3.600 24.138,3.420 24.768,3.200 25.205 C 2.980 25.642,2.620 26.358,2.400 26.795 C 2.180 27.232,2.000 27.952,2.000 28.395 C 2.000 28.838,1.820 29.200,1.600 29.200 C 1.380 29.200,1.200 29.794,1.200 30.520 C 1.200 31.246,0.975 32.065,0.700 32.340 C 0.302 32.738,0.200 66.805,0.200 200.000 C 0.200 333.195,0.302 367.262,0.700 367.660 C 0.975 367.935,1.200 368.754,1.200 369.480 C 1.200 370.206,1.380 370.800,1.600 370.800 C 1.820 370.800,2.000 371.162,2.000 371.605 C 2.000 372.048,2.180 372.768,2.400 373.205 C 2.620 373.642,2.980 374.358,3.200 374.795 C 3.420 375.232,3.600 375.862,3.600 376.195 C 3.600 376.528,3.780 376.800,4.000 376.800 C 4.220 376.800,4.400 377.036,4.400 377.325 C 4.400 377.613,4.760 378.236,5.200 378.708 C 5.640 379.180,6.000 379.804,6.000 380.095 C 6.000 380.386,6.360 380.883,6.800 381.200 C 7.240 381.517,7.600 382.032,7.600 382.345 C 7.600 382.658,8.138 383.428,8.796 384.057 C 9.454 384.686,9.897 385.200,9.781 385.200 C 9.220 385.200,12.824 388.939,14.793 390.400 C 15.534 390.950,16.366 391.625,16.642 391.900 C 16.917 392.175,17.386 392.400,17.683 392.400 C 17.980 392.400,18.483 392.760,18.800 393.200 C 19.117 393.640,19.614 394.000,19.905 394.000 C 20.196 394.000,20.820 394.360,21.292 394.800 C 21.764 395.240,22.387 395.600,22.675 395.600 C 22.964 395.600,23.200 395.780,23.200 396.000 C 23.200 396.220,23.560 396.400,24.000 396.400 C 24.440 396.400,24.800 396.580,24.800 396.800 C 24.800 397.020,25.239 397.200,25.776 397.200 C 26.313 397.200,26.864 397.380,27.000 397.600 C 27.136 397.820,27.687 398.000,28.224 398.000 C 28.761 398.000,29.200 398.180,29.200 398.400 C 29.200 398.620,29.794 398.800,30.520 398.800 C 31.246 398.800,32.065 399.025,32.340 399.300 C 32.738 399.698,66.805 399.800,200.000 399.800 C 333.195 399.800,367.262 399.698,367.660 399.300 C 367.935 399.025,368.754 398.800,369.480 398.800 C 370.206 398.800,370.800 398.620,370.800 398.400 C 370.800 398.180,371.162 398.000,371.605 398.000 C 372.048 398.000,372.768 397.820,373.205 397.600 C 373.642 397.380,374.358 397.020,374.795 396.800 C 375.232 396.580,375.862 396.400,376.195 396.400 C 376.528 396.400,376.800 396.220,376.800 396.000 C 376.800 395.780,377.036 395.600,377.325 395.600 C 377.613 395.600,378.236 395.240,378.708 394.800 C 379.180 394.360,379.804 394.000,380.095 394.000 C 380.386 394.000,380.883 393.640,381.200 393.200 C 381.517 392.760,382.006 392.400,382.285 392.400 C 382.806 392.400,384.439 391.151,385.554 389.900 C 385.897 389.515,386.374 389.200,386.614 389.200 C 387.146 389.200,389.200 387.109,389.200 386.567 C 389.200 386.353,389.515 385.897,389.900 385.554 C 391.151 384.439,392.400 382.806,392.400 382.285 C 392.400 382.006,392.760 381.517,393.200 381.200 C 393.640 380.883,394.000 380.386,394.000 380.095 C 394.000 379.804,394.360 379.180,394.800 378.708 C 395.240 378.236,395.600 377.613,395.600 377.325 C 395.600 377.036,395.780 376.800,396.000 376.800 C 396.220 376.800,396.400 376.528,396.400 376.195 C 396.400 375.862,396.608 375.187,396.862 374.695 C 397.858 372.769,398.000 372.383,398.000 371.605 C 398.000 371.162,398.180 370.800,398.400 370.800 C 398.620 370.800,398.800 370.206,398.800 369.480 C 398.800 368.754,399.025 367.935,399.300 367.660 C 400.036 366.924,400.036 33.076,399.300 32.340 C 399.025 32.065,398.800 31.246,398.800 30.520 C 398.800 29.794,398.620 29.200,398.400 29.200 C 398.180 29.200,398.000 28.761,398.000 28.224 C 398.000 27.687,397.820 27.136,397.600 27.000 C 397.380 26.864,397.200 26.313,397.200 25.776 C 397.200 25.239,397.020 24.800,396.800 24.800 C 396.580 24.800,396.400 24.440,396.400 24.000 C 396.400 23.560,396.220 23.200,396.000 23.200 C 395.780 23.200,395.600 22.964,395.600 22.675 C 395.600 22.387,395.240 21.764,394.800 21.292 C 394.360 20.820,394.000 20.196,394.000 19.905 C 394.000 19.614,393.640 19.117,393.200 18.800 C 392.760 18.483,392.400 17.980,392.400 17.683 C 392.400 17.386,392.175 16.917,391.900 16.642 C 391.625 16.366,390.950 15.534,390.400 14.793 C 388.939 12.824,385.200 9.220,385.200 9.781 C 385.200 9.897,384.686 9.454,384.057 8.796 C 383.428 8.138,382.658 7.600,382.345 7.600 C 382.032 7.600,381.517 7.240,381.200 6.800 C 380.883 6.360,380.386 6.000,380.095 6.000 C 379.804 6.000,379.180 5.640,378.708 5.200 C 378.236 4.760,377.613 4.400,377.325 4.400 C 377.036 4.400,376.800 4.220,376.800 4.000 C 376.800 3.780,376.528 3.600,376.195 3.600 C 375.862 3.600,375.232 3.420,374.795 3.200 C 374.358 2.980,373.642 2.620,373.205 2.400 C 372.768 2.180,372.048 2.000,371.605 2.000 C 371.162 2.000,370.800 1.820,370.800 1.600 C 370.800 1.380,370.206 1.200,369.480 1.200 C 368.754 1.200,367.935 0.975,367.660 0.700 C 367.185 0.225,38.848 -0.177,34.200 0.292 M213.600 44.386 C 215.910 44.605,218.970 44.962,220.400 45.180 C 221.830 45.398,224.260 45.759,225.800 45.983 C 244.010 48.632,262.404 55.368,280.200 65.906 C 284.344 68.360,290.359 72.254,290.800 72.769 C 290.910 72.897,292.080 73.812,293.400 74.801 C 294.720 75.790,295.995 76.780,296.234 77.000 C 296.473 77.220,297.171 77.760,297.786 78.200 C 305.329 83.597,316.442 94.963,323.999 105.013 C 325.648 107.206,327.313 109.349,327.699 109.775 C 328.084 110.202,328.400 110.772,328.400 111.042 C 328.400 111.312,328.545 111.593,328.723 111.667 C 329.103 111.823,331.600 115.420,331.600 115.810 C 331.600 115.957,331.939 116.554,332.353 117.138 C 332.767 117.722,333.464 118.830,333.902 119.600 C 334.339 120.370,335.729 122.777,336.989 124.948 C 339.750 129.706,343.975 138.448,346.004 143.600 C 349.038 151.307,352.960 165.725,354.056 173.200 C 356.625 190.731,357.004 205.874,355.184 218.302 C 354.221 224.881,353.963 226.521,353.212 230.825 C 351.823 238.782,347.871 252.250,345.121 258.400 C 344.678 259.390,344.038 260.830,343.699 261.600 C 341.070 267.565,335.648 278.085,334.036 280.350 C 333.576 280.995,333.200 281.637,333.200 281.775 C 333.200 282.042,327.635 290.460,327.233 290.800 C 327.103 290.910,325.572 292.890,323.830 295.200 C 315.016 306.887,305.990 315.787,293.400 325.203 C 292.080 326.190,290.910 327.102,290.800 327.229 C 290.128 328.006,281.063 333.658,275.000 337.081 C 269.477 340.200,261.078 344.181,255.608 346.275 C 254.173 346.824,252.640 347.422,252.200 347.603 C 251.760 347.785,251.040 348.024,250.600 348.135 C 250.160 348.245,247.280 349.074,244.200 349.977 C 237.715 351.877,230.999 353.462,227.000 354.036 C 217.311 355.427,212.834 355.836,202.862 356.242 C 196.198 356.512,187.957 356.101,181.698 355.184 C 180.322 354.983,177.892 354.625,176.298 354.388 C 162.562 352.349,149.712 348.791,140.082 344.359 C 138.697 343.721,137.491 343.200,137.402 343.200 C 136.614 343.200,121.727 335.515,119.650 334.036 C 119.005 333.576,118.363 333.200,118.225 333.200 C 117.957 333.200,109.538 327.633,109.200 327.232 C 109.090 327.102,107.477 325.843,105.616 324.435 C 103.755 323.027,102.045 321.732,101.816 321.558 C 96.149 317.243,85.281 306.696,81.045 301.400 C 79.814 299.860,78.653 298.413,78.465 298.184 C 78.278 297.955,76.972 296.245,75.563 294.384 C 74.153 292.523,72.685 290.651,72.300 290.225 C 71.915 289.798,71.600 289.228,71.600 288.958 C 71.600 288.688,71.455 288.407,71.277 288.333 C 70.951 288.199,68.400 284.606,68.400 284.281 C 68.400 284.184,67.112 281.967,65.537 279.353 C 59.303 269.005,54.287 258.129,51.261 248.400 C 49.878 243.953,47.967 236.881,47.557 234.692 C 47.342 233.542,46.981 231.790,46.756 230.800 C 43.727 217.458,43.013 194.164,45.188 179.600 C 45.401 178.170,45.759 175.740,45.983 174.200 C 46.556 170.261,47.651 164.624,48.354 162.000 C 48.560 161.230,49.115 159.160,49.588 157.400 C 53.960 141.114,63.304 122.018,73.759 108.000 C 75.318 105.910,76.775 104.004,76.997 103.763 C 77.218 103.523,77.850 102.724,78.400 101.987 C 83.732 94.843,94.730 83.848,101.993 78.400 C 102.727 77.850,103.523 77.220,103.763 77.000 C 104.994 75.873,110.853 71.600,111.169 71.600 C 111.369 71.600,111.593 71.430,111.667 71.223 C 111.887 70.598,125.004 62.869,131.000 59.831 C 140.689 54.922,147.791 52.160,157.200 49.644 C 158.850 49.203,160.895 48.638,161.745 48.390 C 162.595 48.141,164.215 47.764,165.345 47.551 C 166.475 47.339,168.210 46.990,169.200 46.775 C 174.101 45.714,180.707 44.893,187.918 44.449 C 191.064 44.255,193.764 43.969,193.918 43.814 C 194.273 43.457,208.010 43.856,213.600 44.386 M227.613 71.100 C 227.620 71.265,229.576 72.355,231.960 73.521 C 234.344 74.688,236.641 75.948,237.065 76.321 C 237.488 76.695,238.308 77.270,238.887 77.600 C 242.843 79.854,252.426 88.941,255.294 93.158 C 255.983 94.171,256.649 95.090,256.774 95.200 C 257.160 95.541,258.438 97.763,258.671 98.500 C 258.793 98.885,259.052 99.200,259.247 99.200 C 259.441 99.200,259.600 99.455,259.600 99.767 C 259.600 100.078,259.737 100.393,259.904 100.467 C 260.191 100.593,263.238 106.651,264.095 108.800 C 264.314 109.350,264.652 110.113,264.847 110.495 C 265.041 110.877,265.200 111.541,265.200 111.971 C 265.200 112.401,265.360 112.852,265.556 112.973 C 265.751 113.094,266.012 113.779,266.134 114.496 C 266.343 115.724,266.612 116.995,267.682 121.800 C 268.268 124.431,268.258 141.910,267.670 144.800 C 267.423 146.010,267.107 147.677,266.967 148.504 C 266.826 149.331,266.551 150.106,266.356 150.227 C 266.160 150.348,266.000 150.829,266.000 151.295 C 266.000 152.369,265.304 154.608,263.946 157.900 C 263.697 158.505,263.359 159.360,263.195 159.800 C 258.860 171.458,244.925 187.227,235.200 191.479 C 234.870 191.624,234.510 191.848,234.400 191.979 C 234.191 192.227,229.331 194.602,227.600 195.302 C 225.600 196.112,224.584 196.513,223.800 196.804 C 223.360 196.967,222.497 197.303,221.881 197.550 C 221.266 197.798,220.357 198.000,219.861 198.000 C 219.366 198.000,218.789 198.162,218.580 198.359 C 218.371 198.556,217.480 198.821,216.600 198.947 C 215.720 199.074,213.830 199.369,212.400 199.603 C 210.970 199.837,206.560 200.181,202.600 200.367 C 194.869 200.731,191.254 201.046,188.400 201.608 C 187.410 201.802,185.520 202.169,184.200 202.424 C 181.510 202.942,181.033 203.084,176.800 204.627 C 157.006 211.845,140.683 229.001,135.534 248.000 C 135.326 248.770,134.969 250.030,134.741 250.800 C 134.141 252.831,133.631 256.070,133.229 260.400 C 133.036 262.490,132.764 264.560,132.626 265.000 C 132.362 265.842,133.297 275.583,133.970 279.000 C 134.186 280.100,134.525 281.810,134.722 282.800 C 134.919 283.790,135.482 285.680,135.972 287.000 C 136.462 288.320,137.006 289.850,137.181 290.400 C 137.922 292.723,141.614 299.710,143.733 302.798 C 150.347 312.434,157.656 319.278,166.594 324.205 C 167.587 324.752,169.165 325.620,170.100 326.134 C 173.858 328.199,181.985 330.974,186.200 331.632 C 190.605 332.319,196.580 332.952,198.400 332.925 C 201.841 332.873,213.818 332.017,216.800 331.610 C 218.450 331.385,220.970 331.041,222.400 330.846 C 223.830 330.650,226.080 330.210,227.400 329.867 C 228.720 329.525,231.330 328.882,233.200 328.438 C 235.070 327.995,237.680 327.277,239.000 326.842 C 243.719 325.288,250.234 322.907,252.200 322.018 C 257.714 319.524,264.382 316.175,265.872 315.150 C 266.792 314.517,267.659 314.000,267.800 314.000 C 267.941 314.000,268.841 313.460,269.800 312.800 C 270.759 312.140,271.709 311.600,271.910 311.600 C 272.111 311.600,272.602 311.240,273.000 310.800 C 273.398 310.360,273.874 310.000,274.057 310.000 C 274.241 310.000,274.708 309.742,275.095 309.426 C 276.629 308.177,279.618 306.000,279.799 306.000 C 280.029 306.000,280.280 305.802,285.400 301.580 C 288.924 298.673,293.336 294.398,298.640 288.747 C 299.543 287.786,301.849 285.020,303.765 282.600 C 305.681 280.180,307.610 277.750,308.052 277.200 C 308.494 276.650,309.331 275.390,309.913 274.400 C 310.495 273.410,311.112 272.540,311.285 272.467 C 311.458 272.393,311.600 272.174,311.600 271.979 C 311.600 271.784,312.413 270.368,313.406 268.833 C 315.421 265.718,320.959 254.706,322.375 251.000 C 322.879 249.680,323.527 248.060,323.814 247.400 C 325.574 243.365,326.837 239.570,329.005 231.800 C 329.762 229.088,330.300 226.244,331.615 218.000 C 333.512 206.101,332.973 186.737,330.423 175.200 C 329.961 173.110,329.420 170.590,329.220 169.600 C 328.279 164.931,325.134 155.515,322.139 148.400 C 319.940 143.175,314.717 133.227,311.894 128.888 C 310.852 127.286,310.000 125.893,310.000 125.792 C 310.000 125.691,309.742 125.292,309.426 124.905 C 309.110 124.517,307.647 122.580,306.175 120.600 C 300.814 113.389,290.619 102.798,284.036 97.600 C 282.225 96.170,280.411 94.730,280.005 94.400 C 279.599 94.070,278.935 93.530,278.528 93.200 C 278.121 92.870,277.296 92.345,276.694 92.032 C 276.092 91.720,275.600 91.315,275.600 91.132 C 275.600 90.950,275.364 90.800,275.075 90.800 C 274.787 90.800,274.164 90.440,273.692 90.000 C 273.220 89.560,272.674 89.200,272.479 89.200 C 272.284 89.200,271.798 88.840,271.400 88.400 C 271.002 87.960,270.547 87.600,270.389 87.600 C 270.230 87.600,268.143 86.471,265.750 85.090 C 263.358 83.710,260.770 82.289,260.000 81.933 C 256.610 80.367,253.963 79.200,253.798 79.200 C 253.700 79.200,252.441 78.660,251.000 78.000 C 249.559 77.340,248.202 76.800,247.985 76.800 C 247.767 76.800,247.277 76.627,246.895 76.415 C 243.125 74.322,227.568 70.035,227.613 71.100 M194.400 106.980 C 170.125 112.479,165.449 145.212,187.245 157.070 C 204.963 166.710,226.955 153.601,226.955 133.400 C 226.955 116.434,210.744 103.278,194.400 106.980 M204.800 238.599 C 205.790 238.734,206.960 239.000,207.400 239.189 C 207.840 239.378,209.055 239.767,210.100 240.054 C 211.145 240.340,212.000 240.715,212.000 240.887 C 212.000 241.059,212.360 241.200,212.800 241.200 C 213.240 241.200,213.600 241.380,213.600 241.600 C 213.600 241.820,213.793 242.000,214.028 242.000 C 216.797 242.000,226.000 252.352,226.000 255.468 C 226.000 255.761,226.180 256.000,226.400 256.000 C 226.620 256.000,226.800 256.540,226.800 257.200 C 226.800 257.860,226.961 258.400,227.158 258.400 C 227.996 258.400,228.811 270.949,228.024 271.736 C 227.791 271.969,227.600 272.743,227.600 273.456 C 227.600 274.169,227.420 274.864,227.200 275.000 C 226.980 275.136,226.800 275.676,226.800 276.200 C 226.800 276.724,226.620 277.264,226.400 277.400 C 226.180 277.536,226.000 277.997,226.000 278.424 C 226.000 278.851,225.820 279.200,225.600 279.200 C 225.380 279.200,225.200 279.483,225.200 279.828 C 225.200 283.785,212.373 294.000,207.405 294.000 C 206.878 294.000,206.336 294.180,206.200 294.400 C 206.053 294.638,203.537 294.800,200.000 294.800 C 196.463 294.800,193.947 294.638,193.800 294.400 C 193.664 294.180,193.122 294.000,192.595 294.000 C 188.357 294.000,177.912 286.465,175.924 281.973 C 175.638 281.328,175.269 280.800,175.102 280.800 C 174.936 280.800,174.800 280.440,174.800 280.000 C 174.800 279.560,174.620 279.200,174.400 279.200 C 174.180 279.200,174.000 278.851,174.000 278.424 C 174.000 277.997,173.820 277.536,173.600 277.400 C 173.380 277.264,173.200 276.724,173.200 276.200 C 173.200 275.676,173.039 275.148,172.842 275.026 C 171.987 274.498,171.205 262.635,171.975 261.865 C 172.209 261.631,172.400 260.857,172.400 260.144 C 172.400 259.431,172.580 258.736,172.800 258.600 C 173.020 258.464,173.200 258.001,173.200 257.571 C 173.200 257.141,173.359 256.477,173.553 256.095 C 173.748 255.713,174.148 254.860,174.443 254.200 C 176.141 250.397,180.164 245.626,183.600 243.340 C 186.007 241.740,190.555 239.600,191.551 239.600 C 191.992 239.600,192.464 239.420,192.600 239.200 C 192.736 238.980,193.602 238.787,194.524 238.772 C 195.446 238.756,196.560 238.582,197.000 238.385 C 197.794 238.028,201.348 238.126,204.800 238.599 " stroke="none" fill="#9464cc" fill-rule="evenodd"></path><path id="path4" d="M187.400 44.827 C 171.268 46.140,154.089 50.325,139.676 56.450 C 135.369 58.281,128.000 61.905,128.000 62.192 C 128.000 62.294,129.944 61.437,132.319 60.288 C 134.695 59.140,137.170 57.980,137.819 57.712 C 146.378 54.172,149.106 53.219,157.567 50.809 C 200.028 38.718,245.309 45.229,283.193 68.874 C 286.823 71.140,288.353 72.208,292.824 75.600 C 306.762 86.172,319.860 99.913,328.962 113.511 C 330.034 115.112,330.980 116.353,331.065 116.268 C 331.278 116.056,327.163 110.071,323.569 105.364 C 291.709 63.640,239.792 40.560,187.400 44.827 M126.200 62.965 C 125.760 63.253,122.790 65.025,119.600 66.903 C 101.454 77.585,86.574 91.401,72.729 110.422 C 68.745 115.896,62.103 127.036,62.554 127.488 C 62.660 127.593,63.214 126.756,63.786 125.628 C 65.710 121.832,72.239 111.291,73.219 110.400 C 73.340 110.290,73.871 109.570,74.400 108.800 C 74.929 108.030,75.463 107.310,75.587 107.200 C 75.711 107.090,76.709 105.851,77.806 104.446 C 84.679 95.644,94.346 85.720,101.600 80.020 C 103.910 78.205,106.160 76.421,106.600 76.054 C 107.040 75.688,108.030 74.950,108.800 74.414 C 109.570 73.877,110.290 73.334,110.400 73.206 C 110.831 72.705,118.443 67.958,122.900 65.411 C 125.485 63.933,127.600 62.651,127.600 62.562 C 127.600 62.266,127.010 62.436,126.200 62.965 M227.289 70.223 C 226.010 71.119,226.189 71.812,227.900 72.593 C 231.100 74.054,234.288 75.761,236.631 77.272 C 246.236 83.463,255.515 93.636,260.671 103.631 C 261.463 105.166,262.194 106.340,262.295 106.239 C 262.482 106.051,260.756 102.740,258.417 98.800 C 252.434 88.721,241.315 78.653,230.137 73.192 C 226.489 71.410,226.128 69.797,229.480 70.257 C 230.432 70.388,230.480 70.354,229.800 70.034 C 228.656 69.494,228.290 69.522,227.289 70.223 M231.800 70.800 C 232.240 70.989,232.960 71.138,233.400 71.132 C 234.043 71.123,234.004 71.057,233.200 70.800 C 231.832 70.362,230.781 70.362,231.800 70.800 M234.473 71.406 C 234.586 71.519,235.741 71.883,237.039 72.214 C 238.338 72.545,240.300 73.158,241.400 73.577 C 242.500 73.995,245.290 75.052,247.600 75.925 C 273.243 85.621,297.163 104.730,311.285 126.800 C 312.060 128.010,313.443 130.170,314.360 131.600 C 320.521 141.212,327.852 159.343,329.804 169.800 C 329.968 170.680,330.179 171.192,330.272 170.937 C 330.700 169.771,327.174 157.893,324.176 150.400 C 322.196 145.450,317.013 134.665,316.006 133.400 C 315.831 133.180,314.532 131.107,313.120 128.794 C 311.708 126.480,310.259 124.230,309.900 123.794 C 309.541 123.357,307.847 121.110,306.134 118.800 C 294.639 103.298,273.073 86.214,255.354 78.573 C 245.672 74.397,233.175 70.108,234.473 71.406 M198.900 105.487 C 199.505 105.578,200.495 105.578,201.100 105.487 C 201.705 105.395,201.210 105.320,200.000 105.320 C 198.790 105.320,198.295 105.395,198.900 105.487 M194.000 106.000 L 193.000 106.320 194.000 106.313 C 194.550 106.309,195.540 106.168,196.200 106.000 L 197.400 105.695 196.200 105.687 C 195.540 105.683,194.550 105.824,194.000 106.000 M204.000 106.000 C 204.550 106.176,205.450 106.320,206.000 106.320 L 207.000 106.320 206.000 106.000 C 205.450 105.824,204.550 105.680,204.000 105.680 L 203.000 105.680 204.000 106.000 M189.537 107.350 C 181.564 110.629,172.640 120.944,172.823 126.668 C 172.836 127.071,173.255 126.230,173.755 124.800 C 176.597 116.658,182.277 110.698,190.200 107.543 C 191.740 106.929,192.730 106.426,192.400 106.423 C 192.070 106.421,190.782 106.838,189.537 107.350 M209.800 107.500 C 217.566 110.669,223.397 116.686,226.060 124.280 C 227.019 127.014,227.409 127.560,227.004 125.600 C 225.414 117.903,215.646 108.027,208.200 106.589 C 207.540 106.462,208.260 106.871,209.800 107.500 M262.400 107.376 C 262.400 107.693,262.554 108.048,262.741 108.164 C 262.929 108.280,263.399 109.380,263.786 110.610 C 264.172 111.839,264.588 112.746,264.708 112.625 C 264.931 112.402,262.869 106.800,262.565 106.800 C 262.474 106.800,262.400 107.059,262.400 107.376 M264.834 113.600 C 264.846 113.930,265.011 114.560,265.200 115.000 L 265.544 115.800 265.566 115.000 C 265.578 114.560,265.413 113.930,265.200 113.600 C 264.855 113.067,264.815 113.067,264.834 113.600 M265.656 116.600 C 265.656 117.040,265.811 117.760,266.000 118.200 L 266.344 119.000 266.344 118.200 C 266.344 117.760,266.189 117.040,266.000 116.600 L 265.656 115.800 265.656 116.600 M331.312 117.100 C 331.400 117.265,332.115 118.480,332.902 119.800 C 361.739 168.209,362.673 226.612,335.400 276.050 C 332.058 282.108,323.856 294.313,321.994 296.000 C 321.872 296.110,321.065 297.100,320.199 298.200 C 315.813 303.776,305.386 314.416,300.200 318.607 C 298.660 319.852,297.040 321.170,296.600 321.535 C 256.446 354.898,195.745 364.397,145.247 345.221 C 140.133 343.279,129.378 338.461,127.665 337.345 C 127.151 337.010,126.630 336.837,126.506 336.961 C 126.264 337.203,135.651 341.781,141.200 344.128 C 153.170 349.190,167.380 352.846,181.800 354.573 C 184.660 354.916,187.697 355.293,188.550 355.411 C 194.531 356.239,215.138 355.302,225.000 353.755 C 263.006 347.792,299.017 326.358,323.000 295.427 C 329.293 287.311,333.657 280.486,338.117 271.788 C 339.605 268.885,343.200 261.238,343.200 260.975 C 343.200 260.892,343.645 259.850,344.190 258.659 C 360.805 222.336,359.071 170.188,339.977 131.912 C 336.953 125.850,331.782 116.800,331.342 116.800 C 331.238 116.800,331.225 116.935,331.312 117.100 M266.480 120.200 C 266.480 120.640,266.624 121.450,266.800 122.000 C 267.054 122.792,267.120 122.833,267.120 122.200 C 267.120 121.760,266.976 120.950,266.800 120.400 C 266.546 119.608,266.480 119.567,266.480 120.200 M267.483 128.000 C 267.602 130.530,267.767 132.675,267.850 132.767 C 268.127 133.074,267.934 127.424,267.598 125.400 C 267.376 124.059,267.338 124.915,267.483 128.000 M227.400 133.400 C 227.400 136.974,227.520 139.040,227.677 138.158 C 228.034 136.151,228.034 130.649,227.677 128.642 C 227.520 127.760,227.400 129.826,227.400 133.400 M172.257 129.100 C 171.950 130.956,172.006 136.588,172.347 138.177 C 172.486 138.825,172.600 136.710,172.600 133.477 C 172.600 126.950,172.604 127.000,172.257 129.100 M59.829 132.500 C 37.412 179.637,39.399 233.386,65.193 277.600 C 66.797 280.350,68.312 282.960,68.559 283.400 C 70.111 286.161,76.204 294.537,80.739 300.144 C 87.985 309.102,101.089 320.924,112.602 328.890 C 117.250 332.106,125.559 336.975,125.869 336.664 C 125.948 336.585,124.165 335.474,121.907 334.194 C 117.797 331.867,111.506 327.808,109.571 326.236 C 109.006 325.776,107.940 324.950,107.203 324.400 C 90.998 312.306,76.036 295.716,66.800 279.600 C 65.855 277.950,64.410 275.430,63.589 274.000 C 39.796 232.551,38.676 179.015,60.613 131.751 C 61.570 129.688,62.267 128.000,62.161 128.000 C 62.056 128.000,61.006 130.025,59.829 132.500 M267.674 137.000 C 267.629 137.880,267.505 139.590,267.398 140.800 C 267.225 142.757,267.249 142.854,267.620 141.673 C 267.849 140.943,267.973 139.233,267.895 137.873 C 267.804 136.274,267.726 135.965,267.674 137.000 M172.828 140.200 C 172.802 141.327,175.183 146.641,176.776 149.011 C 180.636 154.755,187.728 159.662,193.403 160.515 L 195.000 160.755 193.600 160.335 C 183.525 157.318,176.997 151.286,173.755 142.000 C 173.255 140.570,172.839 139.760,172.828 140.200 M226.216 142.067 C 223.310 150.952,215.126 158.455,206.400 160.235 C 205.630 160.392,205.234 160.601,205.519 160.700 C 207.945 161.539,216.613 156.670,220.785 152.124 C 223.735 148.910,227.914 140.980,227.091 140.158 C 226.987 140.054,226.593 140.913,226.216 142.067 M266.600 145.200 C 266.446 146.110,266.411 146.944,266.521 147.054 C 266.631 147.164,266.846 146.510,267.000 145.600 C 267.154 144.690,267.189 143.856,267.079 143.746 C 266.969 143.636,266.754 144.290,266.600 145.200 M265.873 148.553 C 265.723 148.945,265.611 149.566,265.625 149.933 C 265.642 150.375,265.781 150.274,266.037 149.634 C 266.249 149.103,266.361 148.482,266.285 148.254 C 266.209 148.027,266.024 148.161,265.873 148.553 M265.073 151.353 C 264.923 151.745,264.811 152.366,264.825 152.733 C 264.842 153.175,264.981 153.074,265.237 152.434 C 265.449 151.903,265.561 151.282,265.485 151.054 C 265.409 150.827,265.224 150.961,265.073 151.353 M264.200 154.400 C 264.050 154.873,264.017 155.350,264.127 155.460 C 264.237 155.570,264.450 155.273,264.600 154.800 C 264.750 154.327,264.783 153.850,264.673 153.740 C 264.563 153.630,264.350 153.927,264.200 154.400 M263.023 157.406 C 262.681 158.226,262.400 159.028,262.400 159.187 C 262.400 161.064,256.036 171.227,251.439 176.693 C 244.832 184.548,233.089 192.808,224.870 195.382 C 224.358 195.542,224.025 195.758,224.129 195.863 C 224.234 195.967,225.906 195.395,227.846 194.592 C 243.477 188.122,257.197 174.019,263.227 158.224 C 264.110 155.910,263.938 155.217,263.023 157.406 M197.500 161.194 C 198.875 161.350,201.125 161.350,202.500 161.194 C 204.528 160.963,204.056 160.909,200.000 160.909 C 195.944 160.909,195.472 160.963,197.500 161.194 M330.468 172.400 C 330.462 172.950,330.611 173.760,330.800 174.200 L 331.144 175.000 331.132 174.200 C 331.126 173.760,330.976 172.950,330.800 172.400 L 330.480 171.400 330.468 172.400 M331.268 176.400 C 331.262 176.950,331.411 177.760,331.600 178.200 L 331.944 179.000 331.932 178.200 C 331.926 177.760,331.776 176.950,331.600 176.400 L 331.280 175.400 331.268 176.400 M332.073 181.200 C 332.058 181.970,332.195 183.320,332.377 184.200 C 332.836 186.421,332.874 184.150,332.420 181.600 C 332.122 179.922,332.098 179.895,332.073 181.200 M333.112 192.200 C 333.221 195.280,333.376 197.875,333.455 197.967 C 333.732 198.285,333.539 190.189,333.227 188.400 C 333.043 187.343,332.995 188.912,333.112 192.200 M220.800 196.820 C 219.810 197.225,219.360 197.553,219.800 197.549 C 220.240 197.544,221.320 197.207,222.200 196.800 C 224.270 195.842,223.150 195.858,220.800 196.820 M216.200 198.000 L 215.400 198.344 216.200 198.332 C 216.640 198.326,217.450 198.176,218.000 198.000 L 219.000 197.680 218.000 197.668 C 217.450 197.662,216.640 197.811,216.200 198.000 M212.000 198.800 L 211.000 199.120 212.000 199.120 C 212.550 199.120,213.450 198.976,214.000 198.800 L 215.000 198.480 214.000 198.480 C 213.450 198.480,212.550 198.624,212.000 198.800 M205.600 199.600 L 203.400 199.870 205.800 199.895 C 207.120 199.909,208.650 199.776,209.200 199.600 C 210.493 199.186,208.979 199.186,205.600 199.600 M190.400 200.421 C 189.769 200.637,190.432 200.678,192.200 200.532 C 193.740 200.405,195.075 200.234,195.167 200.151 C 195.496 199.853,191.379 200.087,190.400 200.421 M185.600 201.200 L 184.600 201.520 185.600 201.520 C 186.150 201.520,187.050 201.376,187.600 201.200 L 188.600 200.880 187.600 200.880 C 187.050 200.880,186.150 201.024,185.600 201.200 M181.600 202.000 L 180.600 202.320 181.600 202.320 C 182.150 202.320,183.050 202.176,183.600 202.000 L 184.600 201.680 183.600 201.680 C 183.050 201.680,182.150 201.824,181.600 202.000 M178.800 202.800 C 178.267 203.145,178.267 203.188,178.800 203.188 C 179.130 203.188,179.670 203.013,180.000 202.800 C 180.533 202.455,180.533 202.412,180.000 202.412 C 179.670 202.412,179.130 202.587,178.800 202.800 M175.600 203.898 C 174.610 204.248,173.995 204.598,174.234 204.678 C 174.473 204.758,175.463 204.470,176.434 204.040 C 178.559 203.097,178.094 203.018,175.600 203.898 M332.995 208.538 C 332.838 210.842,332.794 212.969,332.897 213.264 C 333.000 213.559,333.220 211.765,333.387 209.278 C 333.554 206.792,333.598 204.665,333.485 204.552 C 333.373 204.439,333.152 206.233,332.995 208.538 M168.756 206.912 C 153.087 214.874,141.338 228.218,135.635 244.532 C 134.956 246.474,134.415 248.364,134.433 248.732 C 134.450 249.099,134.875 248.140,135.377 246.600 C 138.090 238.267,141.161 232.578,147.147 224.800 C 152.221 218.208,164.434 208.746,171.200 206.166 C 173.071 205.453,174.091 204.800,173.336 204.800 C 173.103 204.800,171.042 205.750,168.756 206.912 M332.200 217.600 C 332.045 218.728,332.008 219.741,332.118 219.851 C 332.228 219.961,332.445 219.128,332.600 218.000 C 332.755 216.872,332.792 215.859,332.682 215.749 C 332.572 215.639,332.355 216.472,332.200 217.600 M331.489 221.600 C 331.336 222.150,331.225 223.050,331.242 223.600 C 331.268 224.461,331.326 224.414,331.658 223.260 C 331.870 222.524,331.981 221.624,331.906 221.260 C 331.808 220.794,331.686 220.893,331.489 221.600 M330.582 227.382 C 330.429 228.402,330.394 229.327,330.504 229.437 C 330.614 229.547,330.829 228.802,330.982 227.782 C 331.135 226.761,331.170 225.837,331.060 225.727 C 330.950 225.617,330.735 226.361,330.582 227.382 M329.873 230.553 C 329.723 230.945,329.611 231.566,329.625 231.933 C 329.642 232.375,329.781 232.274,330.037 231.634 C 330.249 231.103,330.361 230.482,330.285 230.254 C 330.209 230.027,330.024 230.161,329.873 230.553 M328.987 233.853 C 328.848 234.484,328.590 235.450,328.414 236.000 C 328.237 236.550,327.871 237.810,327.600 238.800 C 326.901 241.352,326.415 242.754,325.553 244.696 C 325.139 245.628,324.800 246.506,324.800 246.646 C 324.800 250.046,313.310 271.190,307.000 279.400 C 305.680 281.117,303.880 283.463,303.000 284.612 C 292.761 297.979,272.963 313.249,255.453 321.283 C 249.674 323.935,236.101 328.769,234.269 328.828 C 233.791 328.844,233.040 329.023,232.600 329.227 C 230.286 330.299,236.182 328.876,242.200 326.910 C 248.780 324.760,250.094 324.259,254.800 322.102 C 256.010 321.547,257.990 320.650,259.200 320.109 C 262.132 318.797,271.366 313.253,275.600 310.262 C 285.744 303.096,290.174 299.243,298.084 290.703 C 310.018 277.821,318.495 264.268,324.922 247.800 C 327.169 242.042,329.831 233.298,329.452 232.919 C 329.335 232.802,329.126 233.222,328.987 233.853 M198.300 239.093 C 199.235 239.177,200.765 239.177,201.700 239.093 C 202.635 239.009,201.870 238.940,200.000 238.940 C 198.130 238.940,197.365 239.009,198.300 239.093 M190.949 240.342 C 183.147 243.059,173.566 252.639,173.604 257.689 C 173.606 257.970,174.313 256.760,175.176 255.000 C 177.952 249.338,182.487 244.719,187.872 242.071 C 190.049 241.001,191.330 240.551,194.800 239.640 C 195.941 239.340,196.015 239.266,195.200 239.241 C 194.650 239.225,192.737 239.720,190.949 240.342 M205.800 239.796 C 215.942 242.372,222.832 248.643,226.244 258.400 C 226.744 259.830,227.164 260.708,227.177 260.350 C 227.458 252.565,212.798 238.825,204.658 239.244 C 204.186 239.269,204.700 239.517,205.800 239.796 M133.873 250.153 C 133.723 250.545,133.611 251.166,133.625 251.533 C 133.642 251.975,133.781 251.874,134.037 251.234 C 134.249 250.703,134.361 250.082,134.285 249.854 C 134.209 249.627,134.024 249.761,133.873 250.153 M133.000 254.400 C 132.845 255.528,132.808 256.541,132.918 256.651 C 133.028 256.761,133.245 255.928,133.400 254.800 C 133.555 253.672,133.592 252.659,133.482 252.549 C 133.372 252.439,133.155 253.272,133.000 254.400 M132.299 259.400 C 132.139 260.280,132.029 261.810,132.053 262.800 C 132.097 264.560,132.106 264.547,132.456 262.200 C 132.889 259.304,132.754 256.894,132.299 259.400 M173.029 259.429 C 172.881 260.015,172.851 260.584,172.961 260.694 C 173.071 260.804,173.281 260.415,173.429 259.829 C 173.576 259.242,173.606 258.673,173.496 258.563 C 173.386 258.453,173.176 258.842,173.029 259.429 M227.360 266.600 C 227.360 270.211,227.465 271.632,227.657 270.600 C 228.038 268.548,228.038 264.652,227.657 262.600 C 227.465 261.568,227.360 262.989,227.360 266.600 M172.254 263.456 C 171.944 265.718,171.998 268.981,172.372 270.600 C 172.527 271.272,172.663 269.554,172.680 266.700 C 172.714 261.160,172.643 260.621,172.254 263.456 M132.040 271.633 C 132.062 273.045,132.228 274.650,132.409 275.200 C 132.602 275.787,132.646 274.796,132.514 272.800 C 132.245 268.714,131.985 268.074,132.040 271.633 M172.838 273.000 C 172.754 275.717,176.691 282.728,180.380 286.427 C 183.706 289.764,191.054 294.020,192.537 293.470 C 192.792 293.376,192.460 293.156,191.800 292.982 C 183.822 290.879,176.512 283.157,173.263 273.400 C 172.981 272.555,172.856 272.437,172.838 273.000 M226.673 273.353 C 226.523 273.745,226.411 274.366,226.425 274.733 C 226.442 275.175,226.581 275.074,226.837 274.434 C 227.049 273.903,227.161 273.282,227.085 273.054 C 227.009 272.827,226.824 272.961,226.673 273.353 M225.423 277.006 C 225.081 277.826,224.800 278.587,224.800 278.695 C 224.800 279.482,220.708 284.768,218.449 286.898 C 215.922 289.283,213.830 290.537,208.000 293.166 C 207.013 293.611,207.015 293.614,208.158 293.386 C 212.111 292.599,218.321 288.386,221.713 284.190 C 223.702 281.729,226.711 276.178,226.286 275.753 C 226.155 275.621,225.766 276.185,225.423 277.006 M132.887 278.000 C 132.883 278.550,133.024 279.450,133.200 280.000 C 133.631 281.344,133.631 279.892,133.200 278.200 C 132.926 277.122,132.894 277.102,132.887 278.000 M133.656 282.200 C 133.656 282.640,133.811 283.360,134.000 283.800 L 134.344 284.600 134.344 283.800 C 134.344 283.360,134.189 282.640,134.000 282.200 L 133.656 281.400 133.656 282.200 M134.422 285.200 C 134.349 287.619,140.548 300.523,144.123 305.395 C 151.252 315.109,157.403 320.431,168.563 326.542 C 172.478 328.685,182.479 332.315,180.400 330.838 C 180.070 330.604,179.515 330.409,179.166 330.406 C 175.038 330.366,161.229 322.325,153.052 315.200 C 146.967 309.897,139.284 297.943,135.809 288.371 C 135.056 286.297,134.432 284.870,134.422 285.200 M194.400 294.000 C 194.950 294.176,195.940 294.320,196.600 294.320 C 197.767 294.320,197.772 294.311,196.800 294.000 C 196.250 293.824,195.260 293.680,194.600 293.680 C 193.433 293.680,193.428 293.689,194.400 294.000 M203.200 294.000 C 202.228 294.311,202.233 294.320,203.400 294.320 C 204.060 294.320,205.050 294.176,205.600 294.000 C 206.572 293.689,206.567 293.680,205.400 293.680 C 204.740 293.680,203.750 293.824,203.200 294.000 M229.400 330.000 C 228.381 330.438,229.432 330.438,230.800 330.000 C 231.604 329.743,231.643 329.677,231.000 329.668 C 230.560 329.662,229.840 329.811,229.400 330.000 M226.000 330.800 C 225.236 331.294,226.058 331.294,227.600 330.800 L 228.600 330.480 227.600 330.446 C 227.050 330.427,226.330 330.587,226.000 330.800 M181.800 331.600 C 182.996 332.114,183.995 332.114,183.200 331.600 C 182.870 331.387,182.240 331.222,181.800 331.234 L 181.000 331.256 181.800 331.600 M220.800 331.600 L 219.800 331.920 220.800 331.937 C 221.350 331.946,222.520 331.805,223.400 331.623 L 225.000 331.292 223.400 331.286 C 222.520 331.283,221.350 331.424,220.800 331.600 M185.000 332.400 C 186.761 332.848,188.999 332.848,187.600 332.400 C 187.050 332.224,185.970 332.083,185.200 332.087 L 183.800 332.095 185.000 332.400 M215.000 332.400 C 213.234 332.849,215.245 332.869,217.400 332.423 L 219.000 332.092 217.600 332.093 C 216.830 332.094,215.660 332.232,215.000 332.400 M190.800 333.220 C 191.790 333.397,193.410 333.529,194.400 333.514 L 196.200 333.487 194.000 333.183 C 190.839 332.746,188.301 332.776,190.800 333.220 M204.400 333.200 L 201.000 333.451 204.600 333.479 C 206.580 333.494,209.370 333.375,210.800 333.214 L 213.400 332.922 210.600 332.936 C 209.060 332.943,206.270 333.062,204.400 333.200 " stroke="none" fill="#c4a9e4" fill-rule="evenodd"></path></g></svg>